
<svg xmlns="http://www.w3.org/2000/svg">
    <symbol
        id="Arrow"
        width="37" 
        height="26" 
        viewBox="0 0 37 26" 
        fill="none" 
        xmlns="http://www.w3.org/2000/svg"
        >
        <path 
            fill-rule="evenodd" 
            clip-rule="evenodd" 
            d="M3.60008 0.699999C3.76576 0.479085 4.07916 0.434313 4.30008 0.599999L7.90008 3.3C8.12099 3.46568 8.16576 3.77908 8.00008 4C7.83439 4.22091 7.52099 4.26568 7.30008 4.1L4.69332 2.14493C7.69859 18.5076 22.9713 26.4042 35.909 24.0084L36.0911 24.9916C22.6497 27.4808 6.77066 19.2626 3.69429 2.24105L1.70008 4.9C1.53439 5.12091 1.22099 5.16568 1.00008 5C0.779164 4.83431 0.734393 4.52091 0.900078 4.3L3.60008 0.699999Z" 
            fill="#8A91AB"
        />
    </symbol>
    <symbol 
        id="Favourites"
        width="24" 
        height="34" 
        viewBox="0 0 24 34" 
        fill="none" 
        xmlns="http://www.w3.org/2000/svg"
    >
        <path 
            d="M0.333252 4.50007C0.333252 3.39498 0.742973 2.33516 1.47228 1.55374C2.20159 0.77233 3.19074 0.333336 4.22214 0.333336L19.7777 0.333336C20.8091 0.333336 21.7983 0.77233 22.5276 1.55374C23.2569 2.33516 23.6666 3.39498 23.6666 4.50007V32.6255C23.6665 32.8139 23.6187 32.9988 23.5283 33.1604C23.4379 33.3221 23.3083 33.4544 23.1533 33.5433C22.9982 33.6323 22.8236 33.6745 22.6479 33.6655C22.4723 33.6565 22.3022 33.5966 22.1558 33.4922L11.9999 27.6275L1.84409 33.4922C1.69768 33.5966 1.52759 33.6565 1.35193 33.6655C1.17627 33.6745 1.00162 33.6323 0.846584 33.5433C0.691547 33.4544 0.561927 33.3221 0.471529 33.1604C0.381132 32.9988 0.333343 32.8139 0.333252 32.6255V4.50007ZM4.22214 2.4167C3.70644 2.4167 3.21187 2.6362 2.84721 3.02691C2.48256 3.41761 2.2777 3.94753 2.2777 4.50007V30.6797L11.4613 25.5087C11.6209 25.395 11.8083 25.3343 11.9999 25.3343C12.1916 25.3343 12.379 25.395 12.5385 25.5087L21.7221 30.6797V4.50007C21.7221 3.94753 21.5173 3.41761 21.1526 3.02691C20.788 2.6362 20.2934 2.4167 19.7777 2.4167H4.22214Z" 
            fill="#8A91AB"
        />
    </symbol>
    <symbol
        id="FavouritesNoFill"
        width="14" 
        height="20" 
        viewBox="0 0 14 20" 
        fill="none" 
        xmlns="http://www.w3.org/2000/svg"
    >
        <path 
            d="M0 2.50004C0 1.83699 0.245833 1.20109 0.683417 0.732245C1.121 0.263396 1.71449 0 2.33333 0L11.6667 0C12.2855 0 12.879 0.263396 13.3166 0.732245C13.7542 1.20109 14 1.83699 14 2.50004V19.3753C13.9999 19.4884 13.9713 19.5993 13.917 19.6963C13.8628 19.7932 13.785 19.8726 13.692 19.926C13.599 19.9794 13.4942 20.0047 13.3888 19.9993C13.2834 19.9939 13.1813 19.958 13.0935 19.8953L7 16.3765L0.9065 19.8953C0.818656 19.958 0.716602 19.9939 0.611207 19.9993C0.505811 20.0047 0.401022 19.9794 0.307999 19.926C0.214977 19.8726 0.137205 19.7932 0.0829664 19.6963C0.028728 19.5993 5.45071e-05 19.4884 0 19.3753V2.50004ZM2.33333 1.25002C2.02391 1.25002 1.72717 1.38172 1.50838 1.61614C1.28958 1.85057 1.16667 2.16851 1.16667 2.50004V18.2078L6.67683 15.1052C6.77257 15.037 6.885 15.0006 7 15.0006C7.115 15.0006 7.22743 15.037 7.32317 15.1052L12.8333 18.2078V2.50004C12.8333 2.16851 12.7104 1.85057 12.4916 1.61614C12.2728 1.38172 11.9761 1.25002 11.6667 1.25002H2.33333Z" 
            fill="#8A91AB"
        />
    </symbol>
    <symbol 
        id="FavouritesFill"
        width="14" 
        height="20" 
        viewBox="0 0 14 20" 
        fill="none" 
        xmlns="http://www.w3.org/2000/svg"
    >
        <path 
            d="M0 2.50004C0 1.83699 0.245833 1.20109 0.683417 0.732245C1.121 0.263396 1.71449 0 2.33333 0L11.6667 0C12.2855 0 12.879 0.263396 13.3166 0.732245C13.7542 1.20109 14 1.83699 14 2.50004V19.3753C13.9999 19.4884 13.9713 19.5993 13.917 19.6963C13.8628 19.7932 13.785 19.8726 13.692 19.926C13.599 19.9794 13.4942 20.0047 13.3888 19.9993C13.2834 19.9939 13.1813 19.958 13.0935 19.8953L7 16.3765L0.9065 19.8953C0.818656 19.958 0.716602 19.9939 0.611207 19.9993C0.505811 20.0047 0.401022 19.9794 0.307999 19.926C0.214977 19.8726 0.137205 19.7932 0.0829664 19.6963C0.028728 19.5993 5.45071e-05 19.4884 0 19.3753V2.50004ZM2.33333 1.25002C2.02391 1.25002 1.72717 1.38172 1.50838 1.61614C1.28958 1.85057 1.16667 2.16851 1.16667 2.50004V18.2078L6.67683 15.1052C6.77257 15.037 6.885 15.0006 7 15.0006C7.115 15.0006 7.22743 15.037 7.32317 15.1052L12.8333 18.2078V2.50004C12.8333 2.16851 12.7104 1.85057 12.4916 1.61614C12.2728 1.38172 11.9761 1.25002 11.6667 1.25002H2.33333Z" 
            fill="#8A91AB"
        />
        <path 
            d="M2.33333 1.25002C2.02391 1.25002 1.72717 1.38172 1.50838 1.61614C1.28958 1.85057 1.16667 2.16851 1.16667 2.50004V18.2078L6.67683 15.1052C6.77257 15.037 6.885 15.0006 7 15.0006C7.115 15.0006 7.22743 15.037 7.32317 15.1052L12.8333 18.2078V2.50004C12.8333 2.16851 12.7104 1.85057 12.4916 1.61614C12.2728 1.38172 11.9761 1.25002 11.6667 1.25002H2.33333Z" 
            fill="#8A91AB"
        />
    </symbol>
    <symbol 
        id="angleArrow"
        width="10" 
        height="18" 
        viewBox="0 0 10 18" 
        fill="none" 
        xmlns="http://www.w3.org/2000/svg"
    >
        <path 
            d="M8.5348 0.514999L0.0498047 9L8.5348 17.485L9.9498 16.071L2.8778 9L9.9498 1.929L8.5348 0.514999Z" 
            fill="#8A91AB"
        />
    </symbol>
    <symbol 
        id="Barometer"
        width="24" 
        height="24" 
        viewBox="0 0 24 24" 
        fill="none" 
        xmlns="http://www.w3.org/2000/svg">
        <ellipse 
            cx="12.0002" 
            cy="13" 
            rx="10.8" 
            ry="10.8" 
            fill="#494F68"
        />
        <path 
            d="M14.1665 14.1053C14.3406 13.7656 14.4334 13.3874 14.4334 12.9948C14.4334 11.6471 13.3427 10.5562 11.9948 10.5562C11.602 10.5562 11.224 10.649 10.8843 10.8231L8.28098 8.21982C7.98788 7.92673 7.51277 7.92673 7.21982 8.21982C6.92673 8.51277 6.92673 8.98788 7.21982 9.28098L9.8231 11.8843C9.649 12.224 9.55624 12.6022 9.55624 12.9948C9.55624 14.3425 10.6468 15.4334 11.9948 15.4334C12.3875 15.4334 12.7656 15.3406 13.1053 15.1665L13.7191 15.7802C14.012 16.0732 14.4873 16.0733 14.7802 15.7802C15.0733 15.4873 15.0733 15.0122 14.7802 14.7191L14.1665 14.1053ZM11.9948 13.9327C11.4765 13.9327 11.0569 13.5133 11.0569 12.9948C11.0569 12.4782 11.4756 12.0569 11.9948 12.0569C12.5131 12.0569 12.9327 12.4763 12.9327 12.9948C12.9327 13.5114 12.514 13.9327 11.9948 13.9327Z" 
            fill="white"
        />
    </symbol>

    <symbol
        id="Drizzle"
        xmlns="http://www.w3.org/2000/svg"
        fill="none"
        viewBox="0 0 200 200"
    >
    <path
        fill="#42A0F0"
        d="M71.646 133.421c.381.005 4.25 7.162 4.25 9.943 0 2.781-1.903 5.036-4.25 5.036-2.348 0-4.251-2.255-4.251-5.036 0-2.781 3.87-9.948 4.25-9.943z"
    ></path>
    <path
        fill="#fff"
        d="M69.119 144.402c.595-.205 1.095-1.003 1.117-1.782.021-.779-.443-1.244-1.038-1.04-.595.205-1.095 1.003-1.117 1.782-.022.779.443 1.245 1.038 1.04z"
    ></path>
    <path
        fill="#42A0F0"
        d="M101.144 133.421c.381.005 4.251 7.162 4.251 9.943 0 2.781-1.903 5.036-4.251 5.036-2.347 0-4.25-2.255-4.25-5.036 0-2.781 3.869-9.948 4.25-9.943z"
    ></path>
    <path
        fill="#fff"
        d="M98.617 144.402c.595-.205 1.095-1.003 1.117-1.782.022-.779-.443-1.244-1.037-1.04-.595.205-1.095 1.003-1.117 1.782-.022.779.442 1.245 1.037 1.04z"
    ></path>
    <path
        fill="#42A0F0"
        d="M132.792 133.421c.381.005 4.251 7.162 4.251 9.943 0 2.781-1.903 5.036-4.251 5.036-2.347 0-4.251-2.255-4.251-5.036 0-2.781 3.87-9.948 4.251-9.943z"
    ></path>
    <path
        fill="#fff"
        d="M130.265 144.402c.595-.205 1.095-1.003 1.117-1.782.022-.779-.443-1.244-1.038-1.04-.594.205-1.094 1.003-1.116 1.782-.022.779.442 1.245 1.037 1.04z"
    ></path>
    <path
        fill="#42A0F0"
        d="M162.022 132.57c.381.005 4.251 7.162 4.251 9.943 0 2.781-1.903 5.036-4.251 5.036-2.347 0-4.251-2.255-4.251-5.036 0-2.781 3.87-9.948 4.251-9.943z"
    ></path>
    <path
        fill="#fff"
        d="M159.495 143.551c.595-.205 1.095-1.003 1.117-1.782.022-.779-.443-1.244-1.037-1.04-.595.205-1.095 1.003-1.117 1.782-.022.779.443 1.245 1.037 1.04z"
    ></path>
    <path
        fill="#42A0F0"
        d="M116.038 152.427c.381.005 4.25 7.162 4.25 9.943 0 2.781-1.903 5.035-4.25 5.035-2.348 0-4.251-2.254-4.251-5.035s3.869-9.948 4.251-9.943z"
    ></path>
    <path
        fill="#fff"
        d="M113.511 163.407c.595-.205 1.095-1.002 1.116-1.781.022-.779-.442-1.245-1.037-1.04-.595.205-1.095 1.002-1.117 1.782-.022.779.443 1.244 1.038 1.039z"
    ></path>
    <path
        fill="#42A0F0"
        d="M147.685 152.427c.381.005 4.251 7.162 4.251 9.943 0 2.781-1.904 5.035-4.251 5.035-2.348 0-4.251-2.254-4.251-5.035s3.87-9.948 4.251-9.943z"
    ></path>
    <path
        fill="#fff"
        d="M145.158 163.407c.595-.205 1.095-1.002 1.117-1.781.022-.779-.443-1.245-1.038-1.04-.595.205-1.095 1.002-1.117 1.782-.021.779.443 1.244 1.038 1.039z"
    ></path>
    <path
        fill="#42A0F0"
        d="M181.194 152.427c.381.005 4.251 7.162 4.251 9.943 0 2.781-1.904 5.035-4.251 5.035-2.347 0-4.251-2.254-4.251-5.035s3.87-9.948 4.251-9.943z"
    ></path>
    <path
        fill="#fff"
        d="M178.667 163.407c.595-.205 1.095-1.002 1.117-1.781.022-.779-.443-1.245-1.038-1.04-.595.205-1.095 1.002-1.116 1.782-.022.779.442 1.244 1.037 1.039z"
    ></path>
    <path
        fill="#42A0F0"
        d="M84.39 153.278c.382.005 4.251 7.162 4.251 9.943 0 2.781-1.903 5.035-4.25 5.035-2.348 0-4.252-2.254-4.252-5.035s3.87-9.948 4.251-9.943z"
    ></path>
    <path
        fill="#fff"
        d="M81.863 164.258c.595-.204 1.095-1.002 1.117-1.781.022-.779-.443-1.245-1.038-1.04-.594.205-1.094 1.003-1.116 1.782-.022.779.442 1.244 1.037 1.039z"
    ></path>
    <path
        fill="#42A0F0"
        d="M54.604 152.427c.381.005 4.25 7.162 4.25 9.943 0 2.781-1.902 5.035-4.25 5.035-2.347 0-4.25-2.254-4.25-5.035s3.869-9.948 4.25-9.943z"
    ></path>
    <path
        fill="#fff"
        d="M52.077 163.407c.595-.205 1.095-1.002 1.117-1.781.022-.779-.443-1.245-1.038-1.04-.595.205-1.095 1.002-1.116 1.782-.022.779.442 1.244 1.037 1.039z"
    ></path>
    <path
        fill="#42A0F0"
        d="M71.646 167.461c.381.005 4.25 7.162 4.25 9.943 0 2.781-1.903 5.036-4.25 5.036-2.348 0-4.251-2.255-4.251-5.036 0-2.781 3.87-9.948 4.25-9.943z"
    ></path>
    <path
        fill="#fff"
        d="M69.119 178.442c.595-.205 1.095-1.003 1.117-1.782.021-.779-.443-1.245-1.038-1.04-.595.205-1.095 1.003-1.117 1.782-.022.779.443 1.244 1.038 1.04z"
    ></path>
    <path
        fill="#42A0F0"
        d="M101.144 167.461c.381.005 4.251 7.162 4.251 9.943 0 2.781-1.903 5.036-4.251 5.036-2.347 0-4.25-2.255-4.25-5.036 0-2.781 3.869-9.948 4.25-9.943z"
    ></path>
    <path
        fill="#fff"
        d="M98.617 178.442c.595-.205 1.095-1.003 1.117-1.782.022-.779-.443-1.245-1.037-1.04-.595.205-1.095 1.003-1.117 1.782-.022.779.442 1.244 1.037 1.04z"
    ></path>
    <path
        fill="#42A0F0"
        d="M132.792 167.461c.381.005 4.251 7.162 4.251 9.943 0 2.781-1.903 5.036-4.251 5.036-2.347 0-4.251-2.255-4.251-5.036 0-2.781 3.87-9.948 4.251-9.943z"
    ></path>
    <path
        fill="#fff"
        d="M130.265 178.442c.595-.205 1.095-1.003 1.117-1.782.022-.779-.443-1.245-1.038-1.04-.594.205-1.094 1.003-1.116 1.782-.022.779.442 1.244 1.037 1.04z"
    ></path>
    <path
        fill="#42A0F0"
        d="M162.022 167.461c.381.005 4.251 7.162 4.251 9.943 0 2.781-1.903 5.036-4.251 5.036-2.347 0-4.251-2.255-4.251-5.036 0-2.781 3.87-9.948 4.251-9.943z"
    ></path>
    <path
        fill="#fff"
        d="M159.495 178.442c.595-.205 1.095-1.003 1.117-1.782.022-.779-.443-1.245-1.037-1.04-.595.205-1.095 1.003-1.117 1.782-.022.779.443 1.244 1.037 1.04z"
    ></path>
    <g filter="url(#filter0_d)">
        <path
        fill="url(#paint0_linear)"
        d="M160.245 145.694H58.298a38.3 38.3 0 01-28.622-63.713 38.299 38.299 0 0125.59-12.761 47.94 47.94 0 0189.269-16.75 47.953 47.953 0 0158.599 66.715 38.316 38.316 0 01-36.449 26.509h-6.44z"
        ></path>
        <path
        fill="#fff"
        fillOpacity="0.5"
        d="M166.684 145.161c4.112 0 8.154-.657 12.015-1.951a37.601 37.601 0 0010.418-5.43 37.918 37.918 0 008.188-8.276 37.584 37.584 0 005.321-10.483l.013-.038.018-.037a47.153 47.153 0 003.688-10.126c.861-3.6 1.297-7.32 1.297-11.056 0-3.216-.324-6.43-.963-9.553a47.16 47.16 0 00-7.131-16.947 47.767 47.767 0 00-5.788-7.015 47.42 47.42 0 00-15.066-10.158 47.168 47.168 0 00-8.896-2.761 47.755 47.755 0 00-9.553-.963c-5.325 0-10.553.876-15.536 2.605l-.421.146-.218-.388a47.645 47.645 0 00-17.061-17.515 47.149 47.149 0 00-11.474-4.933 47.507 47.507 0 00-12.806-1.75A47.201 47.201 0 0071.5 40.275a47.434 47.434 0 00-10.376 12.932 46.956 46.956 0 00-5.33 16.085l-.06.424-.426.033c-4.771.374-9.361 1.63-13.643 3.733A37.729 37.729 0 0030.623 81.7a37.64 37.64 0 00-10.09 25.697 37.53 37.53 0 002.967 14.7 37.744 37.744 0 003.482 6.414 38.025 38.025 0 0010.201 10.202 37.73 37.73 0 006.415 3.481 37.53 37.53 0 0014.7 2.968h108.386zm0 .532H58.297c-21.15 0-38.297-17.146-38.297-38.297 0-20.13 15.532-36.634 35.266-38.179C58.53 45.924 78.536 28 102.729 28c17.948 0 33.592 9.865 41.805 24.469a47.86 47.86 0 0115.711-2.635c26.471 0 47.929 21.46 47.929 47.93a47.73 47.73 0 01-5.041 21.421c-4.971 15.383-19.411 26.508-36.449 26.508z"
        ></path>
    </g>
    <defs>
        <filter
        id="filter0_d"
        width="248.174"
        height="177.694"
        x="0"
        y="0"
        colorInterpolationFilters="sRGB"
        filterUnits="userSpaceOnUse"
        >
        <feFlood floodOpacity="0" result="BackgroundImageFix"></feFlood>
        <feColorMatrix
            in="SourceAlpha"
            result="hardAlpha"
            values="0 0 0 0 0 0 0 0 0 0 0 0 0 0 0 0 0 0 127 0"
        ></feColorMatrix>
        <feOffset dx="10" dy="2"></feOffset>
        <feGaussianBlur stdDeviation="15"></feGaussianBlur>
        <feColorMatrix values="0 0 0 0 0 0 0 0 0 0 0 0 0 0 0 0 0 0 0.25 0"></feColorMatrix>
        <feBlend
            in2="BackgroundImageFix"
            result="effect1_dropShadow"
        ></feBlend>
        <feBlend
            in="SourceGraphic"
            in2="effect1_dropShadow"
            result="shape"
        ></feBlend>
        </filter>
        <linearGradient
        id="paint0_linear"
        x1="114.101"
        x2="168.764"
        y1="28.001"
        y2="160.161"
        gradientUnits="userSpaceOnUse"
        >
        <stop stopColor="#fff" stopOpacity="0.604"></stop>
        <stop offset="1" stopColor="#fff" stopOpacity="0.2"></stop>
        </linearGradient>
    </defs>
    </symbol>
    
    
    <symbol id="Rain" viewBox="0 0 200 200" fill="none" xmlns="http://www.w3.org/2000/svg">
<path d="M61.6263 151.552C62.4784 151.561 71.1153 165.047 71.1153 170.288C71.1153 172.805 70.1156 175.218 68.336 176.998C66.5565 178.777 64.143 179.777 61.6263 179.777C59.1097 179.777 56.6961 178.777 54.9166 176.998C53.1371 175.218 52.1373 172.805 52.1373 170.288C52.1373 165.048 60.7748 151.542 61.6263 151.552Z" fill="#42A0F0"/>
<path d="M54.3918 173.834C55.3399 174.124 56.5449 172.932 57.0833 171.171C57.6216 169.411 57.2893 167.748 56.3412 167.458C55.393 167.168 54.188 168.361 53.6497 170.122C53.1114 171.882 53.4436 173.545 54.3918 173.834Z" fill="white"/>
<path d="M111.154 151.552C112.006 151.561 120.643 165.047 120.643 170.288C120.643 172.805 119.643 175.218 117.863 176.998C116.084 178.777 113.67 179.777 111.154 179.777C108.637 179.777 106.223 178.777 104.444 176.998C102.664 175.218 101.665 172.805 101.665 170.288C101.665 165.048 110.302 151.542 111.154 151.552Z" fill="#42A0F0"/>
<path d="M103.919 173.834C104.867 174.124 106.072 172.932 106.61 171.171C107.149 169.411 106.817 167.748 105.868 167.458C104.92 167.168 103.715 168.361 103.177 170.122C102.639 171.882 102.971 173.545 103.919 173.834Z" fill="white"/>
<path d="M160.681 151.552C161.533 151.561 170.17 165.047 170.17 170.288C170.17 172.805 169.17 175.218 167.39 176.998C165.611 178.777 163.197 179.777 160.681 179.777C158.164 179.777 155.751 178.777 153.971 176.998C152.192 175.218 151.192 172.805 151.192 170.288C151.192 165.048 159.829 151.542 160.681 151.552Z" fill="#42A0F0"/>
<path d="M153.446 173.834C154.394 174.124 155.599 172.932 156.138 171.171C156.676 169.411 156.344 167.748 155.396 167.458C154.447 167.168 153.242 168.361 152.704 170.122C152.166 171.882 152.498 173.545 153.446 173.834Z" fill="white"/>
<path d="M86.6562 110.013C87.5083 110.022 96.1452 123.508 96.1452 128.749C96.1452 131.266 95.1455 133.679 93.366 135.459C91.5864 137.238 89.1729 138.238 86.6562 138.238C84.1396 138.238 81.726 137.238 79.9465 135.459C78.167 133.679 77.1672 131.266 77.1672 128.749C77.1672 123.509 85.8047 110.003 86.6562 110.013Z" fill="#42A0F0"/>
<path d="M79.4216 132.296C80.3698 132.585 81.5748 131.393 82.1131 129.632C82.6514 127.872 82.3192 126.209 81.371 125.919C80.4229 125.629 79.2178 126.822 78.6795 128.583C78.1412 130.343 78.4735 132.006 79.4216 132.296Z" fill="white"/>
<path d="M138.846 110.013C139.698 110.022 148.335 123.508 148.335 128.749C148.335 131.266 147.335 133.679 145.556 135.459C143.776 137.238 141.363 138.238 138.846 138.238C136.33 138.238 133.916 137.238 132.136 135.459C130.357 133.679 129.357 131.266 129.357 128.749C129.357 123.509 137.995 110.003 138.846 110.013Z" fill="#42A0F0"/>
<path d="M131.612 132.296C132.56 132.585 133.765 131.393 134.303 129.632C134.841 127.872 134.509 126.209 133.561 125.919C132.613 125.629 131.408 126.822 130.869 128.583C130.331 130.343 130.663 132.006 131.612 132.296Z" fill="white"/>
<g filter="url(#filter0_d_1506:808)">
<path d="M160.245 145.694H58.2973C48.4076 145.686 38.9043 141.853 31.7767 134.997C24.649 128.141 20.4499 118.794 20.0582 108.912C19.6665 99.0303 23.1126 89.3799 29.6752 81.9814C36.2378 74.5828 45.408 70.0097 55.2661 69.2195C56.6719 59.2927 61.1545 50.0565 68.0833 42.8103C75.0121 35.564 84.0384 30.6724 93.8922 28.8236C103.746 26.9748 113.932 28.2618 123.016 32.5037C132.1 36.7455 139.626 43.7287 144.534 52.4707C153.537 49.3543 163.264 48.9901 172.475 51.4248C181.686 53.8595 189.962 58.9825 196.249 66.1406C202.536 73.2986 206.549 82.1672 207.774 91.615C209 101.063 207.384 110.662 203.132 119.187C200.637 126.89 195.765 133.604 189.217 138.366C182.669 143.128 174.781 145.693 166.684 145.694H160.245Z" fill="url(#paint0_linear_1506:808)"/>
<path d="M166.684 145.161C170.795 145.161 174.837 144.504 178.698 143.21C182.431 141.958 185.936 140.131 189.115 137.78C192.258 135.456 195.013 132.672 197.303 129.505C199.622 126.299 201.413 122.773 202.625 119.023L202.638 118.985L202.656 118.949C204.268 115.728 205.509 112.32 206.345 108.822C207.206 105.221 207.642 101.501 207.642 97.7639C207.642 94.5477 207.318 91.3338 206.679 88.2112C206.056 85.1683 205.127 82.1752 203.917 79.3151C202.729 76.5067 201.259 73.798 199.547 71.2642C197.852 68.7544 195.904 66.3942 193.759 64.2492C191.614 62.1043 189.254 60.1569 186.744 58.4613C184.211 56.7495 181.502 55.2792 178.694 54.0914C175.833 52.8816 172.84 51.9525 169.797 51.3298C166.675 50.6908 163.461 50.3669 160.245 50.3669C154.919 50.3669 149.692 51.2432 144.709 52.9717L144.288 53.1175L144.07 52.7296C140.014 45.5178 134.115 39.4614 127.009 35.2149C123.416 33.0673 119.555 31.4078 115.535 30.2823C111.387 29.1213 107.078 28.5326 102.729 28.5326C96.8793 28.5326 91.1689 29.5854 85.7566 31.6618C80.5279 33.6678 75.7315 36.5654 71.5004 40.2742C67.2937 43.9617 63.8027 48.3126 61.1243 53.2061C58.3801 58.2197 56.5865 63.6315 55.7934 69.2913L55.7341 69.7149L55.3076 69.7483C50.5369 70.1217 45.9469 71.3778 41.6651 73.4815C37.5046 75.5257 33.7894 78.2906 30.6228 81.6994C24.116 88.7038 20.5326 97.8298 20.5326 107.396C20.5326 112.495 21.531 117.44 23.5001 122.096C24.4465 124.333 25.6179 126.492 26.9819 128.51C28.3329 130.51 29.8845 132.391 31.5936 134.1C33.3026 135.809 35.1832 137.361 37.183 138.712C39.2019 140.076 41.3601 141.247 43.5977 142.193C48.2531 144.162 53.1987 145.161 58.2971 145.161H160.245H166.684ZM166.684 145.693H160.245H58.2971C37.1463 145.693 20 128.547 20 107.396C20 87.2653 35.5316 70.7621 55.266 69.2174C58.5303 45.9243 78.5364 28 102.729 28C120.677 28 136.321 37.8645 144.534 52.4685C149.456 50.7615 154.742 49.8343 160.245 49.8343C186.715 49.8343 208.174 71.2933 208.174 97.7639C208.174 105.464 206.359 112.74 203.132 119.187C198.159 134.568 183.721 145.693 166.684 145.693Z" fill="white" fill-opacity="0.5"/>
</g>
<defs>
<filter id="filter0_d_1506:808" x="0" y="0" width="248.174" height="177.694" filterUnits="userSpaceOnUse" color-interpolation-filters="sRGB">
<feFlood flood-opacity="0" result="BackgroundImageFix"/>
<feColorMatrix in="SourceAlpha" type="matrix" values="0 0 0 0 0 0 0 0 0 0 0 0 0 0 0 0 0 0 127 0" result="hardAlpha"/>
<feOffset dx="10" dy="2"/>
<feGaussianBlur stdDeviation="15"/>
<feColorMatrix type="matrix" values="0 0 0 0 0 0 0 0 0 0 0 0 0 0 0 0 0 0 0.25 0"/>
<feBlend mode="normal" in2="BackgroundImageFix" result="effect1_dropShadow_1506:808"/>
<feBlend mode="normal" in="SourceGraphic" in2="effect1_dropShadow_1506:808" result="shape"/>
</filter>
<linearGradient id="paint0_linear_1506:808" x1="114.101" y1="28.0014" x2="168.763" y2="160.161" gradientUnits="userSpaceOnUse">
<stop stop-color="white" stop-opacity="0.604"/>
<stop offset="1" stop-color="white" stop-opacity="0.2"/>
</linearGradient>
</defs>
</symbol>


    <symbol id="Snow" viewBox="0 0 200 200" fill="none" xmlns="http://www.w3.org/2000/svg">
<path fill-rule="evenodd" clip-rule="evenodd" d="M75.6951 111.521C76.8562 110.804 78.3847 111.162 79.109 112.321L114.621 169.141C115.345 170.3 114.991 171.82 113.83 172.537C112.669 173.253 111.141 172.895 110.416 171.736L74.9041 114.916C74.1798 113.758 74.5339 112.237 75.6951 111.521Z" fill="#42A0F0"/>
<path fill-rule="evenodd" clip-rule="evenodd" d="M89.9611 108.942C91.2762 109.276 92.0696 110.63 91.7332 111.966L87.6501 128.184C87.3136 129.52 85.9747 130.333 84.6596 129.999C83.3444 129.665 82.551 128.311 82.8875 126.974L86.9706 110.757C87.307 109.42 88.6459 108.608 89.9611 108.942Z" fill="#42A0F0"/>
<path fill-rule="evenodd" clip-rule="evenodd" d="M66.7494 123.584C67.0163 122.232 68.3117 121.349 69.6427 121.613L86.0576 124.861C87.3885 125.125 88.2511 126.434 87.9841 127.786C87.7172 129.138 86.4218 130.021 85.0908 129.758L68.6759 126.509C67.345 126.246 66.4824 124.936 66.7494 123.584Z" fill="#42A0F0"/>
<path fill-rule="evenodd" clip-rule="evenodd" d="M102.112 157.632C102.4 156.284 103.709 155.422 105.035 155.707L121.134 159.163C122.461 159.448 123.303 160.771 123.015 162.119C122.727 163.467 121.418 164.328 120.092 164.044L103.992 160.588C102.666 160.303 101.824 158.979 102.112 157.632Z" fill="#42A0F0"/>
<path fill-rule="evenodd" clip-rule="evenodd" d="M105.47 155.473C106.779 155.828 107.551 157.195 107.194 158.526L102.788 174.941C102.431 176.272 101.08 177.063 99.77 176.707C98.4603 176.352 97.6883 174.985 98.0455 173.655L102.451 157.24C102.809 155.909 104.16 155.118 105.47 155.473Z" fill="#42A0F0"/>
<path fill-rule="evenodd" clip-rule="evenodd" d="M111.735 110.442C112.874 111.046 113.244 112.576 112.562 113.859L81.1111 173.023C80.4288 174.307 78.9523 174.858 77.8132 174.254C76.6742 173.651 76.3039 172.121 76.9863 170.837L108.437 111.673C109.12 110.389 110.596 109.838 111.735 110.442Z" fill="#42A0F0"/>
<path fill-rule="evenodd" clip-rule="evenodd" d="M120.83 121.112C121.115 122.453 120.291 123.9 118.99 124.344L103.209 129.74C101.908 130.184 100.623 129.458 100.338 128.118C100.053 126.778 100.877 125.331 102.178 124.886L117.959 119.491C119.26 119.046 120.545 119.772 120.83 121.112Z" fill="#42A0F0"/>
<path fill-rule="evenodd" clip-rule="evenodd" d="M97.226 108.693C98.5035 108.154 99.8443 108.776 100.221 110.081L104.866 126.191C105.242 127.496 104.511 128.991 103.234 129.53C101.956 130.068 100.616 129.447 100.239 128.141L95.5943 112.032C95.2179 110.726 95.9484 109.231 97.226 108.693Z" fill="#42A0F0"/>
<path fill-rule="evenodd" clip-rule="evenodd" d="M85.4143 156.341C86.6976 155.824 88.0266 156.469 88.3827 157.782L92.7023 173.717C93.0584 175.031 92.3067 176.516 91.0233 177.034C89.74 177.552 88.411 176.906 88.0548 175.593L83.7353 159.658C83.3792 158.344 84.1309 156.859 85.4143 156.341Z" fill="#42A0F0"/>
<path fill-rule="evenodd" clip-rule="evenodd" d="M88.2832 157.803C88.5475 159.15 87.7035 160.586 86.3982 161.009L70.2885 166.236C68.9831 166.659 67.7107 165.911 67.4464 164.564C67.1822 163.216 68.0261 161.781 69.3315 161.358L85.4412 156.131C86.7465 155.708 88.019 156.456 88.2832 157.803Z" fill="#42A0F0"/>
<path fill-rule="evenodd" clip-rule="evenodd" d="M130.322 141.264C130.284 142.727 129.206 143.951 127.915 143.996L60.9525 146.341C59.6615 146.386 58.6457 145.236 58.6837 143.772C58.7217 142.309 59.799 141.085 61.09 141.04L128.053 138.695C129.344 138.65 130.36 139.8 130.322 141.264Z" fill="#42A0F0"/>
<path fill-rule="evenodd" clip-rule="evenodd" d="M125.736 154.231C124.924 155.409 123.452 155.662 122.448 154.795L110.139 144.16C109.135 143.293 108.98 141.634 109.793 140.456C110.605 139.277 112.078 139.025 113.081 139.892L125.39 150.526C126.394 151.394 126.549 153.052 125.736 154.231Z" fill="#42A0F0"/>
<path fill-rule="evenodd" clip-rule="evenodd" d="M125.295 127.669C126.125 128.745 125.996 130.422 125.007 131.413L112.708 143.735C111.718 144.726 110.244 144.657 109.414 143.58C108.583 142.503 108.713 140.827 109.702 139.836L122.001 127.514C122.99 126.523 124.465 126.592 125.295 127.669Z" fill="#42A0F0"/>
<path fill-rule="evenodd" clip-rule="evenodd" d="M78.1041 141.271C78.9188 142.363 78.767 144.038 77.765 145.012L65.4783 156.962C64.4763 157.937 63.0036 157.842 62.1888 156.75C61.3741 155.658 61.5259 153.983 62.528 153.009L74.8146 141.059C75.8166 140.085 77.2893 140.18 78.1041 141.271Z" fill="#42A0F0"/>
<path fill-rule="evenodd" clip-rule="evenodd" d="M77.6917 144.398C76.8639 145.563 75.3892 145.79 74.3981 144.904L62.0764 133.899C61.0852 133.013 60.9528 131.351 61.7806 130.186C62.6085 129.021 64.0831 128.794 65.0743 129.679L77.396 140.685C78.3872 141.57 78.5196 143.232 77.6917 144.398Z" fill="#42A0F0"/>
<path fill-rule="evenodd" clip-rule="evenodd" d="M166.194 148.161C166.946 148.488 167.284 149.362 166.95 150.113L153.438 180.457C153.104 181.208 152.223 181.551 151.471 181.224C150.719 180.896 150.381 180.022 150.715 179.271L164.227 148.927C164.561 148.177 165.442 147.833 166.194 148.161Z" fill="#42A0F0"/>
<path fill-rule="evenodd" clip-rule="evenodd" d="M171.234 153.571C171.51 154.363 171.115 155.22 170.352 155.486L162.724 158.137C161.962 158.402 161.12 157.974 160.844 157.182C160.568 156.39 160.962 155.533 161.725 155.268L169.353 152.617C170.116 152.352 170.958 152.779 171.234 153.571Z" fill="#42A0F0"/>
<path fill-rule="evenodd" clip-rule="evenodd" d="M158.389 147.725C159.126 147.394 159.998 147.748 160.338 148.515L163.787 156.311C164.127 157.078 163.804 157.968 163.068 158.299C162.331 158.63 161.459 158.277 161.119 157.51L157.67 149.713C157.33 148.946 157.653 148.056 158.389 147.725Z" fill="#42A0F0"/>
<path fill-rule="evenodd" clip-rule="evenodd" d="M154.198 171.696C154.94 171.377 155.808 171.745 156.135 172.517L159.412 180.239C159.739 181.011 159.404 181.895 158.662 182.214C157.919 182.533 157.052 182.165 156.725 181.393L153.448 173.671C153.12 172.899 153.456 172.015 154.198 171.696Z" fill="#42A0F0"/>
<path fill-rule="evenodd" clip-rule="evenodd" d="M156.407 172.85C156.671 173.646 156.263 174.496 155.496 174.749L147.699 177.316C146.932 177.568 146.096 177.127 145.833 176.331C145.569 175.535 145.976 174.685 146.743 174.432L154.54 171.865C155.307 171.613 156.143 172.053 156.407 172.85Z" fill="#42A0F0"/>
<path fill-rule="evenodd" clip-rule="evenodd" d="M176.635 162.902C176.704 163.766 176.126 164.533 175.345 164.615L142.311 168.085C141.53 168.167 140.841 167.533 140.773 166.669C140.704 165.805 141.281 165.038 142.062 164.956L175.097 161.486C175.878 161.404 176.566 162.038 176.635 162.902Z" fill="#42A0F0"/>
<path fill-rule="evenodd" clip-rule="evenodd" d="M174.771 170.012C174.313 170.694 173.422 170.817 172.78 170.285L166.31 164.924C165.668 164.392 165.52 163.408 165.978 162.726C166.436 162.043 167.327 161.921 167.968 162.452L174.439 167.814C175.08 168.345 175.229 169.329 174.771 170.012Z" fill="#42A0F0"/>
<path fill-rule="evenodd" clip-rule="evenodd" d="M173.309 156.194C173.909 156.782 173.981 157.773 173.469 158.408L168.237 164.898C167.725 165.532 166.824 165.569 166.225 164.981C165.625 164.393 165.553 163.402 166.065 162.768L171.297 156.278C171.809 155.643 172.71 155.606 173.309 156.194Z" fill="#42A0F0"/>
<path fill-rule="evenodd" clip-rule="evenodd" d="M150.452 164.551C151.044 165.149 151.101 166.141 150.581 166.766L145.328 173.072C144.807 173.697 143.905 173.719 143.313 173.121C142.722 172.523 142.664 171.532 143.185 170.907L148.438 164.601C148.958 163.976 149.86 163.954 150.452 164.551Z" fill="#42A0F0"/>
<path fill-rule="evenodd" clip-rule="evenodd" d="M150.669 166.81C150.201 167.484 149.307 167.591 148.673 167.049L142.183 161.503C141.549 160.961 141.414 159.975 141.882 159.301C142.35 158.627 143.243 158.52 143.878 159.062L150.368 164.608C151.002 165.15 151.137 166.136 150.669 166.81Z" fill="#42A0F0"/>
<path fill-rule="evenodd" clip-rule="evenodd" d="M169.238 179.421C168.604 179.878 167.68 179.683 167.174 178.986L147.651 152.112C147.144 151.414 147.247 150.478 147.88 150.021C148.513 149.564 149.438 149.759 149.944 150.457L169.467 177.33C169.974 178.028 169.871 178.964 169.238 179.421Z" fill="#42A0F0"/>
<path fill-rule="evenodd" clip-rule="evenodd" d="M162.369 181.16C161.563 180.983 160.987 180.182 161.082 179.369L162.043 171.23C162.139 170.417 162.87 169.902 163.677 170.079C164.483 170.256 165.06 171.057 164.964 171.87L164.003 180.009C163.908 180.822 163.176 181.337 162.369 181.16Z" fill="#42A0F0"/>
<path fill-rule="evenodd" clip-rule="evenodd" d="M173.316 173.24C173.246 174.057 172.534 174.598 171.725 174.448L163.476 172.918C162.667 172.768 162.067 171.984 162.136 171.166C162.206 170.349 162.918 169.808 163.728 169.958L171.976 171.488C172.785 171.638 173.385 172.422 173.316 173.24Z" fill="#42A0F0"/>
<path fill-rule="evenodd" clip-rule="evenodd" d="M154.653 157.621C154.571 158.436 153.849 158.965 153.041 158.802L144.942 157.168C144.134 157.005 143.545 156.212 143.627 155.397C143.71 154.582 144.432 154.053 145.24 154.216L153.339 155.85C154.147 156.013 154.735 156.806 154.653 157.621Z" fill="#42A0F0"/>
<path fill-rule="evenodd" clip-rule="evenodd" d="M153.093 158.682C152.288 158.493 151.723 157.683 151.832 156.873L152.939 148.625C153.048 147.816 153.788 147.313 154.593 147.503C155.398 147.693 155.963 148.502 155.854 149.312L154.747 157.56C154.638 158.369 153.898 158.872 153.093 158.682Z" fill="#42A0F0"/>
<g filter="url(#filter0_d_1506:811)">
<path d="M160.245 145.694H58.2973C48.4076 145.686 38.9043 141.853 31.7767 134.997C24.649 128.141 20.4499 118.794 20.0582 108.912C19.6665 99.0303 23.1126 89.3799 29.6752 81.9813C36.2378 74.5828 45.408 70.0097 55.2661 69.2194C56.6719 59.2927 61.1545 50.0565 68.0833 42.8102C75.0121 35.5639 84.0384 30.6723 93.8922 28.8235C103.746 26.9747 113.932 28.2618 123.016 32.5036C132.1 36.7455 139.626 43.7287 144.534 52.4707C153.537 49.3543 163.264 48.9901 172.474 51.4246C181.685 53.8591 189.962 58.9819 196.249 66.1397C202.536 73.2974 206.548 82.1656 207.774 91.6132C209 101.061 207.385 110.659 203.133 119.185C200.638 126.888 195.767 133.603 189.219 138.365C182.67 143.128 174.781 145.693 166.684 145.694H160.245Z" fill="url(#paint0_linear_1506:811)"/>
<path d="M166.684 145.161C170.796 145.161 174.838 144.504 178.699 143.21C182.433 141.958 185.938 140.131 189.117 137.78C192.26 135.455 195.015 132.671 197.305 129.504C199.624 126.298 201.414 122.771 202.626 119.021L202.639 118.983L202.657 118.946C204.268 115.726 205.509 112.319 206.345 108.82C207.206 105.22 207.642 101.5 207.642 97.7639C207.642 94.5477 207.318 91.3337 206.679 88.2112C206.056 85.1683 205.127 82.1752 203.917 79.3151C202.73 76.5067 201.259 73.798 199.548 71.2642C197.852 68.7543 195.905 66.3942 193.76 64.2492C191.615 62.1042 189.254 60.1569 186.745 58.4613C184.211 56.7494 181.502 55.2792 178.694 54.0914C175.834 52.8816 172.84 51.9525 169.798 51.3298C166.675 50.6908 163.461 50.3668 160.245 50.3668C154.92 50.3668 149.692 51.2433 144.709 52.9717L144.288 53.1175L144.07 52.7296C140.014 45.5179 134.115 39.4614 127.009 35.2149C123.416 33.0673 119.555 31.4078 115.535 30.2824C111.387 29.1212 107.078 28.5325 102.729 28.5325C96.8793 28.5325 91.1689 29.5854 85.7566 31.6618C80.5279 33.6678 75.7315 36.5654 71.5004 40.2742C67.2937 43.9617 63.8027 48.3126 61.1243 53.206C58.3801 58.2196 56.5865 63.6315 55.7934 69.2913L55.7341 69.7149L55.3076 69.7483C50.5369 70.1217 45.9469 71.3778 41.6651 73.4815C37.5046 75.5257 33.7894 78.2906 30.6228 81.6994C24.116 88.7038 20.5326 97.8298 20.5326 107.396C20.5326 112.495 21.531 117.44 23.5001 122.096C24.4465 124.333 25.6179 126.492 26.9819 128.51C28.3329 130.51 29.8845 132.391 31.5936 134.1C33.3026 135.809 35.1832 137.361 37.183 138.712C39.2019 140.075 41.3601 141.247 43.5977 142.193C48.2531 144.162 53.1987 145.161 58.2971 145.161H160.245H166.684ZM166.684 145.693H160.245H58.2971C37.1463 145.693 20 128.547 20 107.396C20 87.2653 35.5316 70.7621 55.266 69.2174C58.5303 45.9242 78.5364 28 102.729 28C120.677 28 136.321 37.8645 144.534 52.4686C149.456 50.7616 154.742 49.8343 160.245 49.8343C186.716 49.8343 208.174 71.2933 208.174 97.7639C208.174 105.463 206.359 112.739 203.133 119.185C198.162 134.568 183.722 145.693 166.684 145.693Z" fill="white" fill-opacity="0.5"/>
</g>
<defs>
<filter id="filter0_d_1506:811" x="0" y="-1.52588e-05" width="248.174" height="177.694" filterUnits="userSpaceOnUse" color-interpolation-filters="sRGB">
<feFlood flood-opacity="0" result="BackgroundImageFix"/>
<feColorMatrix in="SourceAlpha" type="matrix" values="0 0 0 0 0 0 0 0 0 0 0 0 0 0 0 0 0 0 127 0" result="hardAlpha"/>
<feOffset dx="10" dy="2"/>
<feGaussianBlur stdDeviation="15"/>
<feColorMatrix type="matrix" values="0 0 0 0 0 0 0 0 0 0 0 0 0 0 0 0 0 0 0.25 0"/>
<feBlend mode="normal" in2="BackgroundImageFix" result="effect1_dropShadow_1506:811"/>
<feBlend mode="normal" in="SourceGraphic" in2="effect1_dropShadow_1506:811" result="shape"/>
</filter>
<linearGradient id="paint0_linear_1506:811" x1="114.101" y1="28.0013" x2="168.763" y2="160.161" gradientUnits="userSpaceOnUse">
<stop stop-color="white" stop-opacity="0.604"/>
<stop offset="1" stop-color="white" stop-opacity="0.2"/>
</linearGradient>
</defs>
</symbol>


    <symbol id="Mist_Smoke_Haze_Fog" viewBox="0 0 200 200" fill="none" xmlns="http://www.w3.org/2000/svg">
<g filter="url(#filter0_d_1506:812)">
<path fill-rule="evenodd" clip-rule="evenodd" d="M98.555 91.9128C96.3208 92.7777 94.4382 93.8403 93.3834 94.5848C91.1274 96.1773 88.0076 95.6394 86.4151 93.3834C84.8227 91.1274 85.3606 88.0076 87.6166 86.4152C89.3951 85.1597 92.0125 83.7223 94.945 82.5872C97.8576 81.4597 101.414 80.5 105 80.5C109.406 80.5 112.333 82.3529 114.253 83.5686C114.36 83.6366 114.465 83.7026 114.566 83.7662C116.358 84.8919 117.46 85.5 119.5 85.5C121.754 85.5 123.608 84.731 126.014 83.5279C126.216 83.4266 126.433 83.3157 126.663 83.1981C128.753 82.1278 131.933 80.5 135.5 80.5C139.131 80.5 142.431 82.1715 144.593 83.2665C144.774 83.3581 144.947 83.4457 145.111 83.5279C147.691 84.818 149.33 85.5 151 85.5C152.224 85.5 154.18 84.986 156.289 84.0526C157.279 83.6148 158.174 83.1413 158.877 82.7134C159.227 82.5001 159.506 82.3128 159.71 82.1627C159.896 82.0265 159.972 81.9566 159.972 81.9569C159.972 81.9569 159.972 81.9573 159.971 81.9581C161.924 80.0118 165.085 80.014 167.036 81.9645C168.988 83.9171 168.988 87.0829 167.036 89.0355C165.544 90.5268 162.869 92.0765 160.336 93.1974C157.737 94.3474 154.276 95.5 151 95.5C146.694 95.5 143.099 93.7022 140.68 92.4924L140.639 92.4721C137.769 91.0372 136.565 90.5 135.5 90.5C134.459 90.5 133.441 90.9947 130.486 92.4721C127.892 93.769 124.246 95.5 119.5 95.5C114.54 95.5 111.434 93.6081 109.246 92.2338C107.177 90.934 106.43 90.5 105 90.5C103.086 90.5 100.809 91.0403 98.555 91.9128Z" fill="white"/>
<path fill-rule="evenodd" clip-rule="evenodd" d="M88.055 137.913C85.8208 138.778 83.9382 139.84 82.8834 140.585C80.6274 142.177 77.5076 141.639 75.9151 139.383C74.3227 137.127 74.8606 134.008 77.1166 132.415C78.8951 131.16 81.5125 129.722 84.445 128.587C87.3576 127.46 90.9144 126.5 94.5 126.5C98.9058 126.5 101.833 128.353 103.753 129.569C103.86 129.637 103.965 129.703 104.066 129.766C105.858 130.892 106.96 131.5 109 131.5C111.254 131.5 113.108 130.731 115.514 129.528C115.716 129.427 115.933 129.316 116.163 129.198C118.253 128.128 121.433 126.5 125 126.5C128.631 126.5 131.931 128.172 134.093 129.267C134.274 129.358 134.447 129.446 134.611 129.528C137.191 130.818 138.83 131.5 140.5 131.5C141.724 131.5 143.68 130.986 145.789 130.053C146.779 129.615 147.674 129.141 148.377 128.713C148.727 128.5 149.006 128.313 149.21 128.163C149.396 128.027 149.472 127.957 149.472 127.957C149.472 127.957 149.472 127.957 149.471 127.958C151.424 126.012 154.585 126.014 156.536 127.964C158.488 129.917 158.488 133.083 156.536 135.036C155.044 136.527 152.369 138.077 149.836 139.197C147.237 140.347 143.776 141.5 140.5 141.5C136.194 141.5 132.599 139.702 130.18 138.492L130.139 138.472C127.269 137.037 126.065 136.5 125 136.5C123.959 136.5 122.941 136.995 119.986 138.472C117.392 139.769 113.746 141.5 109 141.5C104.04 141.5 100.934 139.608 98.7461 138.234C96.6773 136.934 95.9305 136.5 94.5 136.5C92.5856 136.5 90.309 137.04 88.055 137.913Z" fill="white"/>
<path fill-rule="evenodd" clip-rule="evenodd" d="M144.129 58.1001C146.283 59.8283 146.628 62.9752 144.9 65.1291C143.368 67.0378 140.467 69.1655 137.587 70.7533C134.705 72.3429 130.761 74 126.959 74C122.016 74 117.942 71.4605 115.287 69.8052L115.188 69.7435C115.074 69.6728 114.963 69.6036 114.855 69.5357C113.516 68.7005 112.509 68.0723 111.529 67.6025C110.511 67.1146 109.913 67 109.548 67C109.201 67 108.651 67.104 107.683 67.5802C106.826 68.0017 105.978 68.5338 104.836 69.2504C104.588 69.4058 104.327 69.5699 104.048 69.7435C101.196 71.521 97.0452 74 91.5753 74C85.8432 74 82.3196 71.2824 79.9625 69.4368C77.5415 67.541 76.7354 67 75.2876 67C73.2411 67 70.7391 67.725 68.1931 68.9533C65.6864 70.1627 63.5417 71.6639 62.3026 72.754C60.2293 74.578 57.07 74.3759 55.2459 72.3027C53.4219 70.2294 53.624 67.07 55.6973 65.246C57.6409 63.5361 60.5509 61.5373 63.8479 59.9467C67.1055 58.375 71.156 57 75.2876 57C80.3577 57 83.6737 59.6231 85.7542 61.2688C85.8834 61.371 86.0078 61.4695 86.1276 61.5632C88.2404 63.2176 89.4443 64 91.5753 64C93.9684 64 95.9956 62.979 98.7596 61.2565C98.957 61.1335 99.1642 61.0031 99.3796 60.8675C100.524 60.147 101.901 59.2802 103.269 58.6073C104.969 57.771 107.087 57 109.548 57C111.991 57 114.131 57.7604 115.851 58.585C117.364 59.3102 118.851 60.2401 120.082 61.0099C120.216 61.0942 120.348 61.1765 120.477 61.2565C123.44 63.1035 125.224 64 126.959 64C128.211 64 130.352 63.3237 132.758 61.9967C135.168 60.6678 136.759 59.2956 137.1 58.8709C138.828 56.7171 141.975 56.372 144.129 58.1001Z" fill="white"/>
<path fill-rule="evenodd" clip-rule="evenodd" d="M118.033 104.025C120.229 105.701 120.65 108.838 118.975 111.033C117.508 112.955 114.727 115.099 111.965 116.701C109.218 118.293 105.387 120 101.644 120C96.809 120 92.8501 117.405 90.3487 115.765C90.3061 115.737 90.264 115.71 90.2223 115.682C90.1164 115.613 90.0129 115.545 89.9114 115.479C88.631 114.639 87.6872 114.02 86.7721 113.559C85.8239 113.081 85.3255 113 85.0822 113C84.8577 113 84.4062 113.069 83.5059 113.535C82.707 113.948 81.9161 114.47 80.8306 115.186C80.5939 115.342 80.3433 115.507 80.0756 115.682C77.377 117.45 73.3386 120 67.9863 120C62.3602 120 58.9178 117.191 56.6945 115.36C54.3521 113.432 53.6854 113 52.4931 113C50.6509 113 48.3413 113.691 45.9397 114.909C43.5833 116.104 41.5621 117.591 40.3949 118.671C38.3677 120.546 35.2043 120.422 33.3293 118.395C31.4543 116.368 31.5777 113.204 33.605 111.329C35.4652 109.609 38.2523 107.596 41.4163 105.991C44.5353 104.409 48.4586 103 52.4931 103C57.4777 103 60.7272 105.706 62.6858 107.338C62.8125 107.443 62.9338 107.544 63.0499 107.64C65.0784 109.309 66.1329 110 67.9863 110C70.1133 110 71.9517 109.05 74.5956 107.318C74.781 107.196 74.9765 107.067 75.1803 106.932C76.268 106.212 77.5941 105.334 78.9119 104.653C80.5492 103.806 82.6354 103 85.0822 103C87.51 103 89.6161 103.794 91.2724 104.629C92.729 105.363 94.1584 106.303 95.3265 107.071C95.4551 107.155 95.5804 107.238 95.7023 107.318C98.5514 109.184 100.15 110 101.644 110C102.709 110 104.666 109.373 106.949 108.049C109.218 106.734 110.711 105.378 111.025 104.967C112.701 102.771 115.838 102.35 118.033 104.025Z" fill="white"/>
</g>
<defs>
<filter id="filter0_d_1506:812" x="20.9999" y="43.9998" width="166.5" height="114.501" filterUnits="userSpaceOnUse" color-interpolation-filters="sRGB">
<feFlood flood-opacity="0" result="BackgroundImageFix"/>
<feColorMatrix in="SourceAlpha" type="matrix" values="0 0 0 0 0 0 0 0 0 0 0 0 0 0 0 0 0 0 127 0" result="hardAlpha"/>
<feOffset dx="4" dy="2"/>
<feGaussianBlur stdDeviation="7.5"/>
<feComposite in2="hardAlpha" operator="out"/>
<feColorMatrix type="matrix" values="0 0 0 0 1 0 0 0 0 1 0 0 0 0 1 0 0 0 0.596 0"/>
<feBlend mode="normal" in2="BackgroundImageFix" result="effect1_dropShadow_1506:812"/>
<feBlend mode="normal" in="SourceGraphic" in2="effect1_dropShadow_1506:812" result="shape"/>
</filter>
</defs>
</symbol>


    <symbol id="Dust_Sand_Ash" viewBox="0 0 200 200" fill="none" xmlns="http://www.w3.org/2000/svg">
<g filter="url(#filter0_d_1506:813)">
<circle cx="43" cy="47" r="5" fill="#BBB185"/>
<circle cx="43" cy="89" r="5" fill="#BBB185"/>
<circle cx="43" cy="131" r="5" fill="#BBB185"/>
<circle cx="56" cy="68" r="5" fill="#BBB185"/>
<circle cx="56" cy="110" r="5" fill="#BBB185"/>
<circle cx="56" cy="152" r="5" fill="#BBB185"/>
<circle cx="68" cy="47" r="5" fill="#BBB185"/>
<circle cx="68" cy="89" r="5" fill="#BBB185"/>
<circle cx="68" cy="131" r="5" fill="#BBB185"/>
<circle cx="81" cy="68" r="5" fill="#BBB185"/>
<circle cx="81" cy="110" r="5" fill="#BBB185"/>
<circle cx="81" cy="152" r="5" fill="#BBB185"/>
<circle cx="93" cy="47" r="5" fill="#BBB185"/>
<circle cx="93" cy="89" r="5" fill="#BBB185"/>
<circle cx="93" cy="131" r="5" fill="#BBB185"/>
<circle cx="106" cy="68" r="5" fill="#BBB185"/>
<circle cx="106" cy="110" r="5" fill="#BBB185"/>
<circle cx="106" cy="152" r="5" fill="#BBB185"/>
<circle cx="118" cy="47" r="5" fill="#BBB185"/>
<circle cx="118" cy="89" r="5" fill="#BBB185"/>
<circle cx="118" cy="131" r="5" fill="#BBB185"/>
<circle cx="131" cy="68" r="5" fill="#BBB185"/>
<circle cx="131" cy="110" r="5" fill="#BBB185"/>
<circle cx="131" cy="152" r="5" fill="#BBB185"/>
<circle cx="143" cy="47" r="5" fill="#BBB185"/>
<circle cx="143" cy="89" r="5" fill="#BBB185"/>
<circle cx="143" cy="131" r="5" fill="#BBB185"/>
<circle cx="156" cy="68" r="5" fill="#BBB185"/>
<circle cx="156" cy="110" r="5" fill="#BBB185"/>
<circle cx="156" cy="152" r="5" fill="#BBB185"/>
</g>
<defs>
<filter id="filter0_d_1506:813" x="27" y="29" width="153" height="145" filterUnits="userSpaceOnUse" color-interpolation-filters="sRGB">
<feFlood flood-opacity="0" result="BackgroundImageFix"/>
<feColorMatrix in="SourceAlpha" type="matrix" values="0 0 0 0 0 0 0 0 0 0 0 0 0 0 0 0 0 0 127 0" result="hardAlpha"/>
<feOffset dx="4" dy="2"/>
<feGaussianBlur stdDeviation="7.5"/>
<feComposite in2="hardAlpha" operator="out"/>
<feColorMatrix type="matrix" values="0 0 0 0 0.854167 0 0 0 0 0.854167 0 0 0 0 0.854167 0 0 0 1 0"/>
<feBlend mode="normal" in2="BackgroundImageFix" result="effect1_dropShadow_1506:813"/>
<feBlend mode="normal" in="SourceGraphic" in2="effect1_dropShadow_1506:813" result="shape"/>
</filter>
</defs>
</symbol>



    <symbol
    id="Tornado"
    xmlns="http://www.w3.org/2000/svg"
    fill="none"
    viewBox="0 0 200 200"
    >
    <g filter="url(#filter0_d)">
        <path
        fill="url(#paint0_linear)"
        d="M58.562 113.615c0-3.813 2.304-7.395 6.345-10.505-13.701-5.82-22.333-14.298-22.333-23.738 0-17.548 29.823-31.774 66.614-31.774 36.79 0 66.613 14.226 66.613 31.774 0 9.533-8.796 18.082-22.731 23.906 3.907 3.071 6.128 6.592 6.128 10.337 0 11.929-22.526 21.594-50.317 21.594-27.79 0-50.319-9.668-50.319-21.594z"
        ></path>
        <path
        fill="#fff"
        fillOpacity="0.5"
        d="M108.88 134.676c6.761 0 13.319-.568 19.491-1.688 5.952-1.08 11.295-2.626 15.879-4.593 2.251-.966 4.293-2.028 6.069-3.156 1.783-1.133 3.313-2.342 4.546-3.593 2.522-2.559 3.801-5.261 3.801-8.031 0-1.738-.513-3.47-1.523-5.147-.996-1.653-2.477-3.259-4.402-4.771l-.713-.56.837-.35c3.453-1.443 6.599-3.062 9.35-4.81 2.762-1.756 5.139-3.651 7.064-5.632 1.948-2.006 3.444-4.112 4.447-6.26 1.024-2.193 1.543-4.451 1.543-6.713 0-2.083-.441-4.167-1.311-6.194-.852-1.987-2.128-3.946-3.79-5.82-1.643-1.853-3.678-3.641-6.051-5.316-2.358-1.665-5.069-3.232-8.056-4.657-2.993-1.428-6.288-2.724-9.792-3.854a103.831 103.831 0 00-11.258-2.914c-8.178-1.65-16.866-2.487-25.823-2.487-8.958 0-17.646.837-25.824 2.487a103.792 103.792 0 00-11.257 2.914c-3.505 1.13-6.8 2.426-9.793 3.854-2.987 1.425-5.698 2.992-8.056 4.657-2.373 1.675-4.408 3.463-6.05 5.315-1.663 1.875-2.938 3.834-3.791 5.822-.87 2.026-1.31 4.11-1.31 6.193 0 2.24.509 4.477 1.513 6.65.985 2.129 2.454 4.217 4.366 6.208 1.89 1.966 4.225 3.849 6.939 5.596 2.702 1.739 5.794 3.352 9.19 4.794l.839.357-.723.555c-1.992 1.533-3.526 3.163-4.558 4.845-1.047 1.706-1.578 3.468-1.578 5.238 0 2.77 1.279 5.472 3.8 8.031 1.234 1.251 2.763 2.46 4.546 3.593 1.776 1.128 3.818 2.19 6.07 3.156 4.583 1.967 9.926 3.513 15.878 4.593 6.173 1.12 12.73 1.688 19.491 1.688zm0 .533c-27.79 0-50.318-9.668-50.318-21.594 0-3.813 2.303-7.396 6.344-10.505-13.7-5.82-22.332-14.298-22.332-23.738 0-17.548 29.824-31.774 66.614-31.774 36.789 0 66.613 14.226 66.613 31.774 0 9.532-8.797 18.082-22.731 23.906 3.907 3.07 6.128 6.592 6.128 10.337 0 11.926-22.528 21.594-50.318 21.594z"
        ></path>
    </g>
    <path
        fill="#B2B2B2"
        fillRule="evenodd"
        d="M32.13 79.767c0-5.602 5.15-12.27 17.231-17.828 11.652-5.36 28.1-8.809 46.537-8.809 18.436 0 34.885 3.448 46.536 8.809 12.082 5.558 17.232 12.226 17.232 17.828 0 5.602-5.15 12.27-17.232 17.828-11.651 5.361-28.1 8.809-46.536 8.809-18.437 0-34.885-3.448-46.536-8.809C37.279 92.037 32.13 85.37 32.13 79.767zM95.898 43.13c-19.543 0-37.479 3.634-50.716 9.724C32.375 58.746 22.13 67.896 22.13 79.767c0 10.737 8.382 19.248 19.46 25.136a31.945 31.945 0 00-1.936 3.16c-1.717 3.209-3.154 7.24-3.154 11.437 0 2.075.561 5.094 3.08 8.179 2.437 2.983 6.406 5.661 12.525 7.793 1.443.502 3.025.981 4.761 1.43-.537 1.455-.866 3.147-.866 5.098 0 3.653 1.963 6.746 4.629 9.012 2.663 2.265 6.331 4.006 10.765 5.193 8.885 2.379 21.805 2.794 38.988-.283a5 5 0 10-1.764-9.844c-16.317 2.923-27.647 2.338-34.637.467-3.504-.938-5.68-2.135-6.875-3.151-.964-.819-1.092-1.324-1.106-1.407.003-1.798.67-2.438 1.041-2.742.14-.115.282-.21.422-.292 13.087 1.843 31.867 2.392 58.88.535a4.999 4.999 0 004.645-5.331 4.999 4.999 0 00-5.331-4.645c-39.838 2.739-60.127.047-70.262-3.484-5.006-1.743-7.162-3.565-8.07-4.675-.824-1.009-.825-1.678-.825-1.853 0-2.013.73-4.398 1.971-6.72a20.813 20.813 0 012.511-3.7c12.468 4.632 28.097 7.324 44.916 7.324 19.543 0 37.478-3.634 50.716-9.724 12.807-5.892 23.052-15.042 23.052-26.913 0-11.87-10.245-21.021-23.052-26.913-13.238-6.09-31.173-9.724-50.716-9.724z"
        clipRule="evenodd"
    ></path>
    <path
        fill="#FFD100"
        fillRule="evenodd"
        d="M47.456 141.597a1.5 1.5 0 010 2.122l-2.674 2.673a1.5 1.5 0 11-2.12-2.121l2.672-2.674a1.502 1.502 0 012.122 0z"
        clipRule="evenodd"
    ></path>
    <path
        fill="#FFD100"
        fillRule="evenodd"
        d="M42.661 141.597a1.502 1.502 0 012.121 0l2.674 2.674a1.5 1.5 0 11-2.122 2.121l-2.673-2.673a1.501 1.501 0 010-2.122zM43.728 48.4a1.5 1.5 0 010 2.122l-2.673 2.674a1.5 1.5 0 01-2.122-2.122l2.674-2.673a1.5 1.5 0 012.121 0z"
        clipRule="evenodd"
    ></path>
    <path
        fill="#FFD100"
        fillRule="evenodd"
        d="M38.933 48.4a1.5 1.5 0 012.122 0l2.673 2.674a1.5 1.5 0 01-2.121 2.122l-2.674-2.674a1.5 1.5 0 010-2.121zM157.694 130.414a1.5 1.5 0 010 2.121l-2.674 2.673a1.5 1.5 0 11-2.121-2.121l2.674-2.673a1.5 1.5 0 012.121 0z"
        clipRule="evenodd"
    ></path>
    <path
        fill="#FFD100"
        fillRule="evenodd"
        d="M152.899 130.414a1.5 1.5 0 012.121 0l2.674 2.673a1.5 1.5 0 11-2.121 2.121l-2.674-2.673a1.5 1.5 0 010-2.121zM172.073 97.396a1.501 1.501 0 010 2.12l-2.674 2.674a1.5 1.5 0 11-2.121-2.121l2.673-2.673a1.5 1.5 0 012.122 0z"
        clipRule="evenodd"
    ></path>
    <path
        fill="#FFD100"
        fillRule="evenodd"
        d="M167.278 97.396a1.5 1.5 0 012.121 0l2.674 2.673a1.501 1.501 0 01-2.122 2.121l-2.673-2.673a1.5 1.5 0 010-2.121z"
        clipRule="evenodd"
    ></path>
    <defs>
        <filter
        width="193.227"
        height="147.612"
        x="22.574"
        y="19.598"
        colorInterpolationFilters="sRGB"
        filterUnits="userSpaceOnUse"
        >
        <feFlood floodOpacity="0" result="BackgroundImageFix"></feFlood>
        <feColorMatrix
            in="SourceAlpha"
            result="hardAlpha"
            values="0 0 0 0 0 0 0 0 0 0 0 0 0 0 0 0 0 0 127 0"
        ></feColorMatrix>
        <feOffset dx="10" dy="2"></feOffset>
        <feGaussianBlur stdDeviation="15"></feGaussianBlur>
        <feColorMatrix values="0 0 0 0 0.501961 0 0 0 0 0.501961 0 0 0 0 0.501961 0 0 0 0.302 0"></feColorMatrix>
        <feBlend
            in2="BackgroundImageFix"
            result="effect1_dropShadow"
        ></feBlend>
        <feBlend
            in="SourceGraphic"
            in2="effect1_dropShadow"
            result="shape"
        ></feBlend>
        </filter>
        <linearGradient
        x1="96.531"
        x2="125.864"
        y1="58.637"
        y2="138.946"
        gradientUnits="userSpaceOnUse"
        >
        <stop stopColor="#fff" stopOpacity="0.596"></stop>
        <stop offset="1" stopColor="#F7F7F7" stopOpacity="0.204"></stop>
        </linearGradient>
    </defs>
    </symbol>
    

    <symbol id="Squall" viewBox="0 0 200 200" fill="none" xmlns="http://www.w3.org/2000/svg">
<g filter="url(#filter0_d_1506:804)">
<path fill-rule="evenodd" clip-rule="evenodd" d="M141.768 54.3101C145.751 52.6414 150.366 52.4729 155.413 54.3506C165.594 58.138 170.514 67.6831 170.517 76.6604C170.521 85.6532 165.546 95.0831 155.065 98.1273C150.5 99.4529 142.424 100.286 133.444 100.86C124.271 101.447 113.58 101.791 103.434 101.992C93.2796 102.192 83.6266 102.248 76.5152 102.254C72.9584 102.257 70.035 102.248 67.9994 102.238C66.9815 102.232 66.1855 102.227 65.6432 102.223C65.372 102.221 65.1642 102.219 65.0238 102.218L64.8098 102.216C64.8091 102.216 64.8087 102.216 64.8566 97.2165C64.9045 92.2167 64.9046 92.2167 64.905 92.2167L64.9072 92.2167L65.1092 92.2185C65.246 92.2197 65.4501 92.2214 65.7175 92.2234C66.2523 92.2273 67.0402 92.2326 68.0495 92.2376C70.0682 92.2478 72.9719 92.2571 76.5066 92.2541C83.5779 92.248 93.1645 92.1921 103.237 91.9935C113.319 91.7947 123.844 91.4536 132.805 90.8804C141.959 90.2949 148.937 89.4937 152.276 88.524C157.6 86.9776 160.519 82.1996 160.517 76.6639C160.516 71.1127 157.533 65.8087 151.927 63.7231C149.081 62.6643 147.102 62.9175 145.633 63.5331C144.022 64.2082 142.526 65.538 141.186 67.358C139.859 69.1614 138.877 71.1881 138.219 72.8293C137.896 73.6352 137.664 74.3137 137.517 74.7771C137.444 75.008 137.393 75.1832 137.362 75.2914C137.346 75.3454 137.336 75.3826 137.331 75.4014L137.33 75.4045C137.329 75.4074 137.329 75.4103 137.328 75.4132C137.328 75.4139 137.328 75.4145 137.327 75.4152C136.634 78.0812 133.914 79.6853 131.244 78.9991C128.569 78.3117 126.958 75.5864 127.646 72.9119L132.488 74.1565C127.646 72.9119 127.646 72.91 127.647 72.908L127.651 72.8933L127.658 72.867L127.678 72.7915C127.694 72.7312 127.716 72.6512 127.744 72.5529C127.8 72.3565 127.88 72.0864 127.985 71.7548C128.195 71.0931 128.508 70.1774 128.937 69.107C129.784 66.9956 131.137 64.1412 133.132 61.4306C135.115 58.7366 137.928 55.9195 141.768 54.3101ZM59.8568 97.1686C59.8833 94.4073 62.1437 92.1902 64.905 92.2167L64.8566 97.2165L64.8087 102.216C62.0474 102.19 59.8303 99.9299 59.8568 97.1686Z" fill="#DADADA"/>
<path fill-rule="evenodd" clip-rule="evenodd" d="M83.4905 127.229C83.4905 127.229 83.4905 127.229 83.4891 127.215L83.4905 127.229C80.7438 127.513 78.2863 125.518 78.0016 122.771C77.717 120.024 79.7128 117.567 82.4595 117.282L82.975 122.255C82.4595 117.282 82.4601 117.282 82.4608 117.282L82.6438 117.263C82.7621 117.251 82.9364 117.234 83.1634 117.211C83.6174 117.166 84.2825 117.101 85.1334 117.021C86.8352 116.861 89.2815 116.639 92.2706 116.393C98.2452 115.901 106.406 115.309 115.134 114.915C123.849 114.521 133.199 114.32 141.532 114.62C149.692 114.913 157.461 115.699 162.668 117.542C167.677 119.315 171.532 121.824 173.988 125.091C176.526 128.465 177.306 132.314 176.645 136C175.39 142.991 169.249 148.534 162.573 150.746C159.08 151.903 155.851 151.99 152.967 151.228C150.12 150.476 147.921 148.98 146.306 147.439C144.706 145.911 143.609 144.273 142.919 143.054C142.568 142.435 142.306 141.897 142.126 141.495C142.035 141.293 141.964 141.124 141.911 140.993C141.884 140.927 141.863 140.871 141.845 140.826L141.822 140.765L141.813 140.741L141.809 140.73L141.807 140.725C141.806 140.722 141.805 140.72 146.371 139.047L141.805 140.72C140.855 138.127 142.187 135.255 144.78 134.305C147.358 133.36 150.213 134.672 151.179 137.237C151.179 137.238 151.18 137.24 151.181 137.242C151.19 137.264 151.212 137.317 151.247 137.396C151.319 137.556 151.442 137.812 151.619 138.125C151.984 138.769 152.517 139.543 153.212 140.206C153.892 140.855 154.652 141.33 155.521 141.56C156.354 141.78 157.598 141.86 159.427 141.254C163.672 139.847 166.369 136.646 166.802 134.233C166.984 133.217 166.822 132.199 165.996 131.101C165.089 129.894 163.16 128.324 159.332 126.969C155.702 125.684 149.299 124.906 141.172 124.613C133.219 124.327 124.168 124.517 115.586 124.905C107.017 125.292 98.985 125.874 93.0914 126.359C90.1464 126.601 87.7397 126.82 86.072 126.977C85.2383 127.055 84.5895 127.119 84.1508 127.162C83.9315 127.184 83.7647 127.201 83.6536 127.212L83.4905 127.229ZM151.193 137.275C151.193 137.275 151.193 137.275 151.193 137.274L151.193 137.275ZM151.193 137.275C151.194 137.278 151.195 137.28 146.5 139L151.195 137.28C151.194 137.278 151.194 137.277 151.193 137.275Z" fill="#DADADA"/>
<path fill-rule="evenodd" clip-rule="evenodd" d="M30.7329 124.882C30.7329 122.121 32.9715 119.882 35.7329 119.882H57.0349C59.7964 119.882 62.0349 122.121 62.0349 124.882C62.0349 127.644 59.7964 129.882 57.0349 129.882H35.7329C32.9715 129.882 30.7329 127.644 30.7329 124.882Z" fill="#DADADA"/>
<path fill-rule="evenodd" clip-rule="evenodd" d="M110.851 65.705C111.117 68.4536 109.105 70.8975 106.356 71.1636L105.874 66.1869C106.356 71.1636 106.356 71.1636 106.356 71.1636L106.047 71.1931C105.847 71.212 105.553 71.2395 105.173 71.2744C104.413 71.3443 103.308 71.4439 101.924 71.5633C99.1558 71.802 95.2649 72.12 90.7675 72.4381C81.7981 73.0726 70.3187 73.7143 60.5114 73.7143C50.7718 73.7143 41.8035 73.3738 35.2738 73.0339C32.0067 72.8638 29.3445 72.6936 27.495 72.5656C26.5701 72.5016 25.8481 72.448 25.3548 72.4103C25.1082 72.3915 24.9187 72.3766 24.7896 72.3663L24.6417 72.3544L24.5875 72.35C24.5871 72.3499 24.5868 72.3499 24.9999 67.367L24.5875 72.35C21.8355 72.1218 19.7889 69.7059 20.017 66.9539C20.2451 64.202 22.6608 62.1561 25.4127 62.3841L25.4525 62.3873L25.5846 62.3979C25.703 62.4074 25.8815 62.4214 26.1169 62.4394C26.5877 62.4754 27.2859 62.5272 28.1856 62.5895C29.9854 62.714 32.5902 62.8807 35.7936 63.0474C42.205 63.3812 50.9925 63.7143 60.5114 63.7143C69.9629 63.7143 81.1648 63.0924 90.062 62.4631C94.498 62.1493 98.3367 61.8355 101.065 61.6003C102.429 61.4827 103.514 61.3848 104.257 61.3165C104.628 61.2823 104.914 61.2556 105.106 61.2374L105.392 61.2102C108.14 60.9441 110.585 62.9564 110.851 65.705Z" fill="#DADADA"/>
</g>
<defs>
<filter id="filter0_d_1506:804" x="8.99963" y="40" width="186.869" height="128.723" filterUnits="userSpaceOnUse" color-interpolation-filters="sRGB">
<feFlood flood-opacity="0" result="BackgroundImageFix"/>
<feColorMatrix in="SourceAlpha" type="matrix" values="0 0 0 0 0 0 0 0 0 0 0 0 0 0 0 0 0 0 127 0" result="hardAlpha"/>
<feOffset dx="4" dy="2"/>
<feGaussianBlur stdDeviation="7.5"/>
<feComposite in2="hardAlpha" operator="out"/>
<feColorMatrix type="matrix" values="0 0 0 0 0.854167 0 0 0 0 0.854167 0 0 0 0 0.854167 0 0 0 1 0"/>
<feBlend mode="normal" in2="BackgroundImageFix" result="effect1_dropShadow_1506:804"/>
<feBlend mode="normal" in="SourceGraphic" in2="effect1_dropShadow_1506:804" result="shape"/>
</filter>
</defs>
</symbol>



    <symbol id="Clouds" viewBox="0 0 200 200" fill="none" xmlns="http://www.w3.org/2000/svg">
<g filter="url(#filter0_d_1506:810)">
<path d="M160.244 158.694H58.2972C48.4075 158.686 38.9041 154.853 31.7765 147.997C24.6489 141.141 20.4497 131.794 20.058 121.912C19.6663 112.03 23.1125 102.38 29.6751 94.9814C36.2377 87.5828 45.4079 83.0097 55.2659 82.2194C56.6717 72.2927 61.1544 63.0565 68.0832 55.8102C75.012 48.564 84.0383 43.6723 93.8921 41.8235C103.746 39.9747 113.932 41.2618 123.016 45.5037C132.1 49.7455 139.626 56.7287 144.534 65.4707C153.537 62.3543 163.264 61.9901 172.474 64.4246C181.685 66.8591 189.961 71.9819 196.248 79.1397C202.535 86.2974 206.548 95.1656 207.774 104.613C209 114.061 207.384 123.659 203.133 132.185C200.638 139.888 195.767 146.603 189.218 151.365C182.67 156.128 174.781 158.694 166.684 158.694H160.244Z" fill="url(#paint0_linear_1506:810)"/>
<path d="M166.684 158.161C170.796 158.161 174.838 157.504 178.699 156.21C182.433 154.958 185.938 153.131 189.117 150.78C192.26 148.455 195.015 145.671 197.305 142.504C199.624 139.298 201.414 135.771 202.626 132.021L202.639 131.983L202.657 131.946C204.268 128.726 205.509 125.319 206.345 121.82C207.206 118.22 207.642 114.5 207.642 110.764C207.642 107.548 207.318 104.334 206.679 101.211C206.056 98.1683 205.127 95.1752 203.917 92.3151C202.73 89.5067 201.259 86.798 199.548 84.2642C197.852 81.7543 195.905 79.3942 193.76 77.2492C191.615 75.1042 189.254 73.1569 186.745 71.4613C184.211 69.7494 181.502 68.2792 178.694 67.0914C175.834 65.8816 172.84 64.9525 169.798 64.3298C166.675 63.6908 163.461 63.3668 160.245 63.3668C154.92 63.3668 149.692 64.2433 144.709 65.9717L144.288 66.1175L144.07 65.7296C140.014 58.5179 134.115 52.4614 127.009 48.2149C123.416 46.0673 119.555 44.4078 115.535 43.2824C111.387 42.1212 107.078 41.5325 102.729 41.5325C96.8793 41.5325 91.1689 42.5854 85.7566 44.6618C80.5279 46.6678 75.7315 49.5654 71.5004 53.2742C67.2937 56.9617 63.8027 61.3126 61.1243 66.206C58.3801 71.2196 56.5865 76.6315 55.7934 82.2913L55.7341 82.7149L55.3076 82.7483C50.5369 83.1217 45.9469 84.3778 41.6651 86.4815C37.5046 88.5257 33.7894 91.2906 30.6228 94.6994C24.116 101.704 20.5326 110.83 20.5326 120.396C20.5326 125.495 21.531 130.44 23.5001 135.096C24.4465 137.333 25.6179 139.492 26.9819 141.51C28.3329 143.51 29.8845 145.391 31.5936 147.1C33.3026 148.809 35.1832 150.361 37.183 151.712C39.2019 153.075 41.3601 154.247 43.5977 155.193C48.2531 157.162 53.1987 158.161 58.2971 158.161H160.245H166.684ZM166.684 158.693H160.245H58.2971C37.1463 158.693 20 141.547 20 120.396C20 100.265 35.5316 83.7621 55.266 82.2174C58.5303 58.9242 78.5364 41 102.729 41C120.677 41 136.321 50.8645 144.534 65.4686C149.456 63.7616 154.742 62.8343 160.245 62.8343C186.716 62.8343 208.174 84.2933 208.174 110.764C208.174 118.463 206.359 125.739 203.133 132.185C198.162 147.568 183.722 158.693 166.684 158.693Z" fill="white" fill-opacity="0.5"/>
</g>
<defs>
<filter id="filter0_d_1506:810" x="0" y="13" width="248.174" height="177.694" filterUnits="userSpaceOnUse" color-interpolation-filters="sRGB">
<feFlood flood-opacity="0" result="BackgroundImageFix"/>
<feColorMatrix in="SourceAlpha" type="matrix" values="0 0 0 0 0 0 0 0 0 0 0 0 0 0 0 0 0 0 127 0" result="hardAlpha"/>
<feOffset dx="10" dy="2"/>
<feGaussianBlur stdDeviation="15"/>
<feColorMatrix type="matrix" values="0 0 0 0 0 0 0 0 0 0 0 0 0 0 0 0 0 0 0.25 0"/>
<feBlend mode="normal" in2="BackgroundImageFix" result="effect1_dropShadow_1506:810"/>
<feBlend mode="normal" in="SourceGraphic" in2="effect1_dropShadow_1506:810" result="shape"/>
</filter>
<linearGradient id="paint0_linear_1506:810" x1="114.1" y1="41.0014" x2="168.763" y2="173.161" gradientUnits="userSpaceOnUse">
<stop stop-color="white" stop-opacity="0.604"/>
<stop offset="1" stop-color="white" stop-opacity="0.2"/>
</linearGradient>
</defs>
</symbol>




    <symbol
    id="Clear"
    xmlns="http://www.w3.org/2000/svg"
    fill="none"
    viewBox="0 0 200 200"
    >
    <g filter="url(#filter0_d)">
        <path
        fill="#FA9E42"
        d="M99.59 151.165c28.484 0 51.575-23.091 51.575-51.575S128.074 48.014 99.59 48.014 48.014 71.106 48.014 99.59s23.092 51.575 51.576 51.575z"
        ></path>
    </g>
    <path
        fill="#FA9E42"
        fillRule="evenodd"
        d="M99.019 30.002a72.473 72.473 0 011.142 0 5 5 0 11-.08 10 61.823 61.823 0 00-.982 0 5 5 0 01-.08-10zm28.064 10.91a5 5 0 016.817-1.879c.33.188.659.378.986.57a5 5 0 01-5.079 8.615c-.28-.165-.561-.328-.844-.489a5 5 0 01-1.88-6.816zm-54.986 0a5 5 0 01-1.88 6.817c-.283.16-.564.324-.844.489a5 5 0 01-5.079-8.615c.327-.192.656-.383.986-.57a5 5 0 016.817 1.88zm80.633 21.614a5 5 0 016.847 1.768c.192.327.382.656.57.986a5 5 0 01-8.696 4.937 64.506 64.506 0 00-.489-.844 5 5 0 011.768-6.847zm-106.28 0a5 5 0 011.768 6.847c-.165.28-.328.561-.489.844a5 5 0 01-8.696-4.937c.188-.33.378-.659.57-.986a5 5 0 016.847-1.767zM164.137 94.06a5 5 0 015.041 4.96 108.683 108.683 0 010 1.142 5 5 0 01-10-.08l.002-.491-.002-.49a5 5 0 014.959-5.04zm-129.095 0a5 5 0 014.96 5.04 61.684 61.684 0 000 .982 5 5 0 11-10 .08 72.364 72.364 0 010-1.142 5 5 0 015.04-4.96zm123.225 33.024a5 5 0 011.88 6.817c-.188.33-.378.659-.57.986a5 5 0 01-8.615-5.079c.165-.28.328-.561.489-.844a5 5 0 016.816-1.88zm-117.354 0a5 5 0 016.816 1.88c.16.283.324.564.489.844a5 5 0 01-8.614 5.079 72.041 72.041 0 01-.571-.986 5 5 0 011.88-6.817zm95.74 25.647a5 5 0 01-1.767 6.847c-.327.192-.656.382-.986.57a5 5 0 01-4.937-8.696c.283-.161.564-.324.844-.489a5 5 0 016.846 1.768zm-74.126 0a5 5 0 016.846-1.768c.28.165.561.328.844.489a5 5 0 11-4.937 8.696 82.86 82.86 0 01-.986-.57 5 5 0 01-1.767-6.847zm31.532 11.407a5 5 0 015.04-4.959l.49.002.492-.002a5 5 0 11.08 10l-.571.002-.277-.001-.294-.001a5 5 0 01-4.96-5.041z"
        clipRule="evenodd"
    ></path>
    <g filter="url(#filter1_f)">
        <path
        fill="#F8E36F"
        d="M96.002 93.115c18.042-9.583 28.248-25.673 22.796-35.938-5.452-10.265-24.498-10.819-42.54-1.236C58.216 65.524 48.01 81.614 53.462 91.88c5.452 10.266 24.498 10.819 42.54 1.236z"
        ></path>
    </g>
    <defs>
        <filter
        width="163.151"
        height="163.151"
        x="28.014"
        y="20.014"
        colorInterpolationFilters="sRGB"
        filterUnits="userSpaceOnUse"
        >
        <feFlood floodOpacity="0" result="BackgroundImageFix"></feFlood>
        <feColorMatrix
            in="SourceAlpha"
            result="hardAlpha"
            values="0 0 0 0 0 0 0 0 0 0 0 0 0 0 0 0 0 0 127 0"
        ></feColorMatrix>
        <feOffset dx="10" dy="2"></feOffset>
        <feGaussianBlur stdDeviation="15"></feGaussianBlur>
        <feColorMatrix values="0 0 0 0 0 0 0 0 0 0 0 0 0 0 0 0 0 0 0.25 0"></feColorMatrix>
        <feBlend
            in2="BackgroundImageFix"
            result="effect1_dropShadow"
        ></feBlend>
        <feBlend
            in="SourceGraphic"
            in2="effect1_dropShadow"
            result="shape"
        ></feBlend>
        </filter>
        <filter
        id="filter1_f"
        width="108.272"
        height="90.854"
        x="31.994"
        y="29.101"
        colorInterpolationFilters="sRGB"
        filterUnits="userSpaceOnUse"
        >
        <feFlood floodOpacity="0" result="BackgroundImageFix"></feFlood>
        <feBlend
            in="SourceGraphic"
            in2="BackgroundImageFix"
            result="shape"
        ></feBlend>
        <feGaussianBlur
            result="effect1_foregroundBlur"
            stdDeviation="10"
        ></feGaussianBlur>
        </filter>
    </defs>
    </symbol>
    

    <symbol id="Thunderstorm" viewBox="0 0 200 200" fill="none" xmlns="http://www.w3.org/2000/svg">
<path d="M104.775 106.212H140.993L120.172 136.788L144.516 137.248L93.4191 197.726L105.8 151.617H83.1344L104.775 106.212Z" fill="url(#paint0_linear_1506:806)"/>
<path d="M160.739 138.393H176.641L167.5 151.817L178.188 152.019L155.753 178.572L161.189 158.328H151.24L160.739 138.393Z" fill="url(#paint1_linear_1506:806)"/>
<path d="M50.6034 151.969H66.5049L57.3637 165.394L68.0522 165.596L45.6174 192.149L51.0535 171.904H41.104L50.6034 151.969Z" fill="url(#paint2_linear_1506:806)"/>
<g filter="url(#filter0_d_1506:806)">
<path d="M160.114 145.585H58.2611C48.3806 145.577 38.886 141.748 31.765 134.898C24.644 128.049 20.4487 118.71 20.0574 108.837C19.6661 98.9644 23.109 89.323 29.6655 81.9313C36.222 74.5396 45.3837 69.9707 55.2327 69.1812C56.6372 59.2636 61.1157 50.036 68.038 42.7964C74.9604 35.5569 83.9783 30.6698 93.8231 28.8227C103.668 26.9756 113.844 28.2615 122.92 32.4994C131.996 36.7373 139.514 43.714 144.418 52.448C153.413 49.3344 163.131 48.9706 172.333 51.403C181.535 53.8354 189.804 58.9538 196.085 66.1052C202.366 73.2566 206.375 82.1169 207.6 91.556C208.824 100.995 207.21 110.585 202.962 119.103C200.469 126.798 195.602 133.506 189.06 138.263C182.518 143.021 174.637 145.584 166.548 145.585H160.114Z" fill="url(#paint3_linear_1506:806)"/>
<path d="M166.548 145.052C170.655 145.052 174.694 144.397 178.551 143.103C182.281 141.852 185.782 140.027 188.959 137.678C192.098 135.356 194.851 132.575 197.139 129.411C199.456 126.208 201.245 122.685 202.456 118.939L202.468 118.9L202.486 118.864C204.097 115.646 205.337 112.242 206.173 108.747C207.032 105.15 207.468 101.433 207.468 97.6992C207.468 94.4861 207.144 91.2751 206.506 88.1554C205.884 85.1154 204.956 82.125 203.747 79.2675C202.56 76.4618 201.091 73.7556 199.381 71.2241C197.687 68.7166 195.741 66.3586 193.598 64.2156C191.455 62.0727 189.097 60.1271 186.59 58.433C184.058 56.7228 181.352 55.2539 178.547 54.0672C175.689 52.8586 172.699 51.9303 169.659 51.3082C166.539 50.6698 163.328 50.3461 160.115 50.3461C154.794 50.3461 149.572 51.2217 144.593 52.9485L144.173 53.0942L143.955 52.7067C139.903 45.5016 134.009 39.4507 126.91 35.2082C123.32 33.0626 119.463 31.4046 115.446 30.2802C111.302 29.1202 106.998 28.5321 102.653 28.5321C96.8081 28.5321 91.103 29.5839 85.6956 31.6584C80.4719 33.6625 75.6799 36.5575 71.4527 40.2629C67.2499 43.9469 63.7621 48.2938 61.0862 53.1827C58.3446 58.1917 56.5527 63.5985 55.7602 69.253L55.701 69.6763L55.2749 69.7096C50.5086 70.0827 45.9228 71.3376 41.645 73.4394C37.4884 75.4817 33.7767 78.2441 30.6129 81.6497C24.1122 88.6475 20.5321 97.7651 20.5321 107.323C20.5321 112.416 21.5295 117.357 23.4968 122.009C24.4424 124.244 25.6127 126.4 26.9754 128.417C28.3252 130.415 29.8754 132.294 31.5828 134.002C33.2903 135.709 35.1691 137.259 37.1671 138.609C39.1841 139.972 41.3403 141.142 43.5758 142.088C48.2269 144.055 53.168 145.052 58.2617 145.052H160.115H166.548ZM166.548 145.584H160.115H58.2617C37.1304 145.584 20 128.454 20 107.323C20 87.2104 35.5173 70.7225 55.2333 69.1792C58.4946 45.9076 78.4821 28 102.653 28C120.584 28 136.213 37.8554 144.419 52.4459C149.336 50.7404 154.617 49.8141 160.115 49.8141C186.561 49.8141 208 71.2532 208 97.6992C208 105.392 206.186 112.661 202.962 119.102C197.994 134.469 183.569 145.584 166.548 145.584Z" fill="white" fill-opacity="0.5"/>
</g>
<defs>
<filter id="filter0_d_1506:806" x="0" y="0" width="248" height="177.585" filterUnits="userSpaceOnUse" color-interpolation-filters="sRGB">
<feFlood flood-opacity="0" result="BackgroundImageFix"/>
<feColorMatrix in="SourceAlpha" type="matrix" values="0 0 0 0 0 0 0 0 0 0 0 0 0 0 0 0 0 0 127 0" result="hardAlpha"/>
<feOffset dx="10" dy="2"/>
<feGaussianBlur stdDeviation="15"/>
<feColorMatrix type="matrix" values="0 0 0 0 0.501961 0 0 0 0 0.501961 0 0 0 0 0.501961 0 0 0 0.302 0"/>
<feBlend mode="normal" in2="BackgroundImageFix" result="effect1_dropShadow_1506:806"/>
<feBlend mode="normal" in="SourceGraphic" in2="effect1_dropShadow_1506:806" result="shape"/>
</filter>
<linearGradient id="paint0_linear_1506:806" x1="108.178" y1="151.969" x2="79.5063" y2="141.458" gradientUnits="userSpaceOnUse">
<stop stop-color="#FFD100"/>
<stop offset="1" stop-color="#FFF0AA"/>
</linearGradient>
<linearGradient id="paint1_linear_1506:806" x1="162.235" y1="158.483" x2="149.647" y2="153.868" gradientUnits="userSpaceOnUse">
<stop stop-color="#FFD100"/>
<stop offset="1" stop-color="#FFF0AA"/>
</linearGradient>
<linearGradient id="paint2_linear_1506:806" x1="52.0989" y1="172.059" x2="39.511" y2="167.445" gradientUnits="userSpaceOnUse">
<stop stop-color="#FFD100"/>
<stop offset="1" stop-color="#FFF0AA"/>
</linearGradient>
<linearGradient id="paint3_linear_1506:806" x1="114.013" y1="28.0013" x2="168.624" y2="160.039" gradientUnits="userSpaceOnUse">
<stop stop-color="white" stop-opacity="0.604"/>
<stop offset="1" stop-color="white" stop-opacity="0.2"/>
</linearGradient>
</defs>
</symbol>



</svg>
