
<svg xmlns="http://www.w3.org/2000/svg">
    <symbol
        id="Arrow"
        width="37" 
        height="26" 
        viewBox="0 0 37 26" 
        fill="none" 
        xmlns="http://www.w3.org/2000/svg"
        >
        <path 
            fill-rule="evenodd" 
            clip-rule="evenodd" 
            d="M3.60008 0.699999C3.76576 0.479085 4.07916 0.434313 4.30008 0.599999L7.90008 3.3C8.12099 3.46568 8.16576 3.77908 8.00008 4C7.83439 4.22091 7.52099 4.26568 7.30008 4.1L4.69332 2.14493C7.69859 18.5076 22.9713 26.4042 35.909 24.0084L36.0911 24.9916C22.6497 27.4808 6.77066 19.2626 3.69429 2.24105L1.70008 4.9C1.53439 5.12091 1.22099 5.16568 1.00008 5C0.779164 4.83431 0.734393 4.52091 0.900078 4.3L3.60008 0.699999Z" 
            fill="#8A91AB"
        />
    </symbol>
    <symbol 
        id="Favourites"
        width="24" 
        height="34" 
        viewBox="0 0 24 34" 
        fill="none" 
        xmlns="http://www.w3.org/2000/svg"
    >
        <path 
            d="M0.333252 4.50007C0.333252 3.39498 0.742973 2.33516 1.47228 1.55374C2.20159 0.77233 3.19074 0.333336 4.22214 0.333336L19.7777 0.333336C20.8091 0.333336 21.7983 0.77233 22.5276 1.55374C23.2569 2.33516 23.6666 3.39498 23.6666 4.50007V32.6255C23.6665 32.8139 23.6187 32.9988 23.5283 33.1604C23.4379 33.3221 23.3083 33.4544 23.1533 33.5433C22.9982 33.6323 22.8236 33.6745 22.6479 33.6655C22.4723 33.6565 22.3022 33.5966 22.1558 33.4922L11.9999 27.6275L1.84409 33.4922C1.69768 33.5966 1.52759 33.6565 1.35193 33.6655C1.17627 33.6745 1.00162 33.6323 0.846584 33.5433C0.691547 33.4544 0.561927 33.3221 0.471529 33.1604C0.381132 32.9988 0.333343 32.8139 0.333252 32.6255V4.50007ZM4.22214 2.4167C3.70644 2.4167 3.21187 2.6362 2.84721 3.02691C2.48256 3.41761 2.2777 3.94753 2.2777 4.50007V30.6797L11.4613 25.5087C11.6209 25.395 11.8083 25.3343 11.9999 25.3343C12.1916 25.3343 12.379 25.395 12.5385 25.5087L21.7221 30.6797V4.50007C21.7221 3.94753 21.5173 3.41761 21.1526 3.02691C20.788 2.6362 20.2934 2.4167 19.7777 2.4167H4.22214Z" 
            fill="#8A91AB"
        />
    </symbol>
    <symbol
        id="FavouritesNoFill"
        width="14" 
        height="20" 
        viewBox="0 0 14 20" 
        fill="none" 
        xmlns="http://www.w3.org/2000/svg"
    >
        <path 
            d="M0 2.50004C0 1.83699 0.245833 1.20109 0.683417 0.732245C1.121 0.263396 1.71449 0 2.33333 0L11.6667 0C12.2855 0 12.879 0.263396 13.3166 0.732245C13.7542 1.20109 14 1.83699 14 2.50004V19.3753C13.9999 19.4884 13.9713 19.5993 13.917 19.6963C13.8628 19.7932 13.785 19.8726 13.692 19.926C13.599 19.9794 13.4942 20.0047 13.3888 19.9993C13.2834 19.9939 13.1813 19.958 13.0935 19.8953L7 16.3765L0.9065 19.8953C0.818656 19.958 0.716602 19.9939 0.611207 19.9993C0.505811 20.0047 0.401022 19.9794 0.307999 19.926C0.214977 19.8726 0.137205 19.7932 0.0829664 19.6963C0.028728 19.5993 5.45071e-05 19.4884 0 19.3753V2.50004ZM2.33333 1.25002C2.02391 1.25002 1.72717 1.38172 1.50838 1.61614C1.28958 1.85057 1.16667 2.16851 1.16667 2.50004V18.2078L6.67683 15.1052C6.77257 15.037 6.885 15.0006 7 15.0006C7.115 15.0006 7.22743 15.037 7.32317 15.1052L12.8333 18.2078V2.50004C12.8333 2.16851 12.7104 1.85057 12.4916 1.61614C12.2728 1.38172 11.9761 1.25002 11.6667 1.25002H2.33333Z" 
            fill="#8A91AB"
        />
    </symbol>
    <symbol 
        id="FavouritesFill"
        width="14" 
        height="20" 
        viewBox="0 0 14 20" 
        fill="none" 
        xmlns="http://www.w3.org/2000/svg"
    >
        <path 
            d="M0 2.50004C0 1.83699 0.245833 1.20109 0.683417 0.732245C1.121 0.263396 1.71449 0 2.33333 0L11.6667 0C12.2855 0 12.879 0.263396 13.3166 0.732245C13.7542 1.20109 14 1.83699 14 2.50004V19.3753C13.9999 19.4884 13.9713 19.5993 13.917 19.6963C13.8628 19.7932 13.785 19.8726 13.692 19.926C13.599 19.9794 13.4942 20.0047 13.3888 19.9993C13.2834 19.9939 13.1813 19.958 13.0935 19.8953L7 16.3765L0.9065 19.8953C0.818656 19.958 0.716602 19.9939 0.611207 19.9993C0.505811 20.0047 0.401022 19.9794 0.307999 19.926C0.214977 19.8726 0.137205 19.7932 0.0829664 19.6963C0.028728 19.5993 5.45071e-05 19.4884 0 19.3753V2.50004ZM2.33333 1.25002C2.02391 1.25002 1.72717 1.38172 1.50838 1.61614C1.28958 1.85057 1.16667 2.16851 1.16667 2.50004V18.2078L6.67683 15.1052C6.77257 15.037 6.885 15.0006 7 15.0006C7.115 15.0006 7.22743 15.037 7.32317 15.1052L12.8333 18.2078V2.50004C12.8333 2.16851 12.7104 1.85057 12.4916 1.61614C12.2728 1.38172 11.9761 1.25002 11.6667 1.25002H2.33333Z" 
            fill="#8A91AB"
        />
        <path 
            d="M2.33333 1.25002C2.02391 1.25002 1.72717 1.38172 1.50838 1.61614C1.28958 1.85057 1.16667 2.16851 1.16667 2.50004V18.2078L6.67683 15.1052C6.77257 15.037 6.885 15.0006 7 15.0006C7.115 15.0006 7.22743 15.037 7.32317 15.1052L12.8333 18.2078V2.50004C12.8333 2.16851 12.7104 1.85057 12.4916 1.61614C12.2728 1.38172 11.9761 1.25002 11.6667 1.25002H2.33333Z" 
            fill="#8A91AB"
        />
    </symbol>
    <symbol 
        id="angleArrow"
        width="10" 
        height="18" 
        viewBox="0 0 10 18" 
        fill="none" 
        xmlns="http://www.w3.org/2000/svg"
    >
        <path 
            d="M8.5348 0.514999L0.0498047 9L8.5348 17.485L9.9498 16.071L2.8778 9L9.9498 1.929L8.5348 0.514999Z" 
            fill="#8A91AB"
        />
    </symbol>
    <symbol 
        id="Barometer"
        width="24" 
        height="24" 
        viewBox="0 0 24 24" 
        fill="none" 
        xmlns="http://www.w3.org/2000/svg">
        <ellipse 
            cx="12.0002" 
            cy="13" 
            rx="10.8" 
            ry="10.8" 
            fill="#494F68"
        />
        <path 
            d="M14.1665 14.1053C14.3406 13.7656 14.4334 13.3874 14.4334 12.9948C14.4334 11.6471 13.3427 10.5562 11.9948 10.5562C11.602 10.5562 11.224 10.649 10.8843 10.8231L8.28098 8.21982C7.98788 7.92673 7.51277 7.92673 7.21982 8.21982C6.92673 8.51277 6.92673 8.98788 7.21982 9.28098L9.8231 11.8843C9.649 12.224 9.55624 12.6022 9.55624 12.9948C9.55624 14.3425 10.6468 15.4334 11.9948 15.4334C12.3875 15.4334 12.7656 15.3406 13.1053 15.1665L13.7191 15.7802C14.012 16.0732 14.4873 16.0733 14.7802 15.7802C15.0733 15.4873 15.0733 15.0122 14.7802 14.7191L14.1665 14.1053ZM11.9948 13.9327C11.4765 13.9327 11.0569 13.5133 11.0569 12.9948C11.0569 12.4782 11.4756 12.0569 11.9948 12.0569C12.5131 12.0569 12.9327 12.4763 12.9327 12.9948C12.9327 13.5114 12.514 13.9327 11.9948 13.9327Z" 
            fill="white"
        />
    </symbol>
</svg>
